<?xml version="1.0" encoding="utf-8"?>
<!-- Generator: Adobe Illustrator 16.0.0, SVG Export Plug-In . SVG Version: 6.00 Build 0)  -->
<svg version="1.2" baseProfile="tiny" xmlns="http://www.w3.org/2000/svg" xmlns:xlink="http://www.w3.org/1999/xlink" x="0px"
	 y="0px" width="99px" height="99.346px" viewBox="0 0 99 99.346" xml:space="preserve">
<g id="Layer_1">
	<text transform="matrix(1 0 0 1 0 -4)" font-family="'MyriadPro-Regular'" font-size="12"> </text>
	<text transform="matrix(1 0 0 1 2.1123 -4)" font-family="'MyriadPro-Regular'" font-size="12">V</text>
	<text transform="matrix(1 0 0 1 8.6162 -4)" font-family="'MyriadPro-Regular'" font-size="12">i</text>
	<text transform="matrix(1 0 0 1 11.4238 -4)" font-family="'MyriadPro-Regular'" font-size="12">r</text>
	<text transform="matrix(1 0 0 1 15.6357 -4)" font-family="'MyriadPro-Regular'" font-size="12">t</text>
	<text transform="matrix(1 0 0 1 19.6074 -4)" font-family="'MyriadPro-Regular'" font-size="12">u</text>
	<text transform="matrix(1 0 0 1 26.2197 -4)" font-family="'MyriadPro-Regular'" font-size="12">a</text>
	<text transform="matrix(1 0 0 1 32.0039 -4)" font-family="'MyriadPro-Regular'" font-size="12">l</text>
	<text transform="matrix(1 0 0 1 34.8359 -4)" font-family="'MyriadPro-Regular'" font-size="12"> </text>
	<text transform="matrix(1 0 0 1 36.8877 -4)" font-family="'MyriadPro-Regular'" font-size="12">T</text>
	<text transform="matrix(1 0 0 1 42.084 -4)" font-family="'MyriadPro-Regular'" font-size="12">a</text>
	<text transform="matrix(1 0 0 1 47.8682 -4)" font-family="'MyriadPro-Regular'" font-size="12">p</text>
	<text transform="matrix(1 0 0 1 54.6963 -4)" font-family="'MyriadPro-Regular'" font-size="12">e</text>
	<text transform="matrix(1 0 0 1 60.708 -4)" font-family="'MyriadPro-Regular'" font-size="12"> </text>
	<text transform="matrix(1 0 0 1 63.252 -4)" font-family="'MyriadPro-Regular'" font-size="12">L</text>
	<text transform="matrix(1 0 0 1 68.916 -4)" font-family="'MyriadPro-Regular'" font-size="12">i</text>
	<text transform="matrix(1 0 0 1 71.7236 -4)" font-family="'MyriadPro-Regular'" font-size="12">b</text>
	<text transform="matrix(1 0 0 1 78.5518 -4)" font-family="'MyriadPro-Regular'" font-size="12">r</text>
	<text transform="matrix(1 0 0 1 82.416 -4)" font-family="'MyriadPro-Regular'" font-size="12">a</text>
	<text transform="matrix(1 0 0 1 88.2002 -4)" font-family="'MyriadPro-Regular'" font-size="12">r</text>
	<text transform="matrix(1 0 0 1 92.4238 -4)" font-family="'MyriadPro-Regular'" font-size="12">y</text>
	<g>
		<g>
			<rect x="41.147" y="69.431" fill="#8C3123" width="15.477" height="3.18"/>
		</g>
		<g>
			<polygon fill="#E05243" points="75.353,16.45 75.353,79.533 56.624,79.533 56.624,69.431 41.147,69.431 41.147,79.271 
				22.419,79.271 22.419,16.45 			"/>
		</g>
		<g>
			<rect x="56.624" y="79.271" fill="#8C3123" width="18.729" height="3.18"/>
		</g>
		<g>
			<rect x="22.419" y="79.271" fill="#8C3123" width="18.729" height="3.18"/>
		</g>
	</g>
	<g>
		<g>
			<rect x="26.868" y="51.42" fill="#484A4B" width="21.494" height="2.119"/>
			<rect x="51.354" y="51.787" fill="#484A4B" width="21.495" height="2.492"/>
			<path fill="#8C3123" d="M66.699,44.625c-5.366-2.539-11.774-0.248-14.313,5.119c-1.718,3.632-1.218,7.736,0.944,10.8
				c-2.496,0.63-4.956,0.684-7.917,0.666c0.502-0.487,0.65-0.669,1.05-1.246c1.198-1.732,1.902-3.832,1.902-6.098
				c0-5.936-4.813-10.748-10.748-10.748c-5.938,0-10.749,4.812-10.749,10.748c0,5.937,4.812,10.748,10.749,10.748
				c1.906,0,3.693-0.501,5.246-1.371c0.615,0.062,1.248,0.108,1.915,0.128c0,0,5.077,0.597,10.53-0.714
				c0.663,0.54,1.391,1.019,2.197,1.399c5.364,2.539,11.773,0.247,14.312-5.12C74.357,53.571,72.065,47.163,66.699,44.625z"/>
			<path fill="#FFFFFF" d="M66.699,42.546c-5.366-2.54-11.774-0.248-14.313,5.119c-1.718,3.631-1.218,7.736,0.944,10.8
				c-2.496,0.629-5.263,1.039-8.222,1.021c2.006-1.952,3.257-4.678,3.257-7.699c0-5.937-4.813-10.748-10.748-10.748
				c-5.938,0-10.749,4.812-10.749,10.748s4.812,10.748,10.749,10.748c1.906,0,3.693-0.502,5.246-1.372
				c0.615,0.062,1.248,0.109,1.915,0.128c0,0,5.077,0.598,10.53-0.713c0.663,0.54,1.391,1.018,2.197,1.399
				c5.364,2.538,11.773,0.246,14.312-5.12S72.065,45.084,66.699,42.546z"/>
			<path fill="#E05243" d="M35.204,54.353c-0.685-0.835-1.915-0.958-2.751-0.276l-1.514,1.238c-0.834,0.683-0.959,1.914-0.274,2.749
				l0.137,0.168c0.683,0.837,1.915,0.959,2.749,0.276l1.514-1.237c0.836-0.683,0.959-1.914,0.276-2.75L35.204,54.353z"/>
			<path fill="#E05243" d="M47.118,52.314c0.015-1.078-0.849-1.966-1.93-1.979l-1.952-0.028c-1.08-0.014-1.965,0.85-1.981,1.929
				l-0.003,0.217c-0.014,1.078,0.85,1.967,1.927,1.981l1.954,0.025c1.08,0.015,1.967-0.848,1.981-1.926L47.118,52.314z"/>
			<path fill="#E05243" d="M36.643,48.017c1.023-0.343,1.575-1.45,1.23-2.474l-0.619-1.854c-0.345-1.023-1.452-1.573-2.475-1.23
				l-0.206,0.068c-1.022,0.344-1.574,1.452-1.231,2.474l0.621,1.854c0.343,1.023,1.451,1.575,2.474,1.232L36.643,48.017z"/>
			<circle fill="#E05243" cx="37.617" cy="51.787" r="1.52"/>
			<path fill="#E05243" d="M63.389,55.54c-1.047,0.26-1.685,1.32-1.424,2.368l0.472,1.896c0.259,1.048,1.317,1.687,2.367,1.426
				l0.21-0.053c1.047-0.26,1.686-1.319,1.425-2.367l-0.472-1.896c-0.259-1.046-1.32-1.685-2.367-1.425L63.389,55.54z"/>
			<path fill="#E05243" d="M66.643,43.9c-0.97-0.476-2.139-0.075-2.614,0.895l-0.858,1.754c-0.477,0.97-0.076,2.141,0.894,2.616
				l0.196,0.095c0.967,0.475,2.139,0.074,2.615-0.896l0.859-1.754c0.475-0.971,0.073-2.142-0.896-2.614L66.643,43.9z"/>
			<path fill="#E05243" d="M58.278,51.531c0.128-1.072-0.639-2.046-1.71-2.173l-1.94-0.231c-1.071-0.127-2.044,0.64-2.172,1.712
				l-0.025,0.214c-0.127,1.071,0.638,2.044,1.71,2.172l1.939,0.229c1.073,0.13,2.045-0.636,2.173-1.708L58.278,51.531z"/>
			<path fill="#E05243" d="M62.753,50.887c-0.759-0.358-1.665-0.033-2.025,0.726c-0.358,0.758-0.034,1.665,0.726,2.023
				c0.757,0.359,1.664,0.035,2.023-0.725C63.835,52.154,63.511,51.246,62.753,50.887z"/>
			<path fill="#8C3123" d="M47.118,52.314c0.015-1.078-0.849-1.966-1.93-1.979l-1.952-0.028c-1.08-0.014-2.018,1.006-1.981,1.929
				C44.75,51.344,47.118,52.314,47.118,52.314z"/>
			<path fill="#8C3123" d="M52.449,50.733c0.126-1.071,1.098-1.838,2.171-1.711l1.939,0.227c1.072,0.128,1.869,1.261,1.713,2.171
				C54.924,50.08,52.449,50.733,52.449,50.733z"/>
			<path fill="#8C3123" d="M35.729,55.31c0,0-0.138-0.506-0.534-0.951c-0.442-0.496-1.148-1.052-2.455-0.477l-1.801,1.433
				c-0.717,0.764-0.688,1.188-0.688,1.082C30.252,56.396,33.146,54.105,35.729,55.31z"/>
		</g>
		<path fill="#8C3123" d="M37.254,43.689c-0.345-1.023-1.452-1.573-2.475-1.23l-0.206,0.068c-1.022,0.344-1.604,1.441-1.231,2.474
			C34.875,42.844,37.254,43.689,37.254,43.689z"/>
		<path fill="#8C3123" d="M63.908,45.012c0.345-1.023,1.452-1.573,2.475-1.23l0.206,0.068c1.022,0.344,1.604,1.441,1.231,2.474
			C66.287,44.166,63.908,45.012,63.908,45.012z"/>
		<path fill="#8C3123" d="M61.922,57.674c-0.084-1.077,0.652-2.125,1.728-2.211l0.216-0.018c1.15-0.133,2.056,0.742,2.177,1.771
			C63.785,55.831,61.922,57.674,61.922,57.674z"/>
		<path fill="#E05243" d="M30.252,57.132"/>
		<path fill="#8C3123" d="M36.112,51.57c0,0,0.278-1.285,1.505-1.303s1.504,1.303,1.504,1.303S37.678,50.514,36.112,51.57z"/>
		<path fill="#8C3123" d="M60.582,52.109c0,0,0.293-1.35,1.52-1.367s2.02,1.828,2.02,1.828S62.147,51.053,60.582,52.109z"/>
	</g>
	<text transform="matrix(1 0 0 1 36.7832 32.9023)" fill="#FFFFFF" font-family="'HelveticaNeue-CondensedBold'" font-size="16">V</text>
	<text transform="matrix(1 0 0 1 46.3672 32.9023)" fill="#FFFFFF" font-family="'HelveticaNeue-CondensedBold'" font-size="16">T</text>
	<text transform="matrix(1 0 0 1 54.6865 32.9023)" fill="#FFFFFF" font-family="'HelveticaNeue-CondensedBold'" font-size="16">L</text>
</g>
<g id="nyt_x5F_exporter_x5F_info" display="none">
</g>
</svg>
