<?xml version="1.0" encoding="utf-8"?>
<!-- Generator: Adobe Illustrator 16.0.0, SVG Export Plug-In . SVG Version: 6.00 Build 0)  -->
<svg version="1.2" baseProfile="tiny" xmlns="http://www.w3.org/2000/svg" xmlns:xlink="http://www.w3.org/1999/xlink" x="0px"
	 y="0px" width="100px" height="100px" viewBox="0 0 100 100" xml:space="preserve">
<g id="Layer_1">
	<g>
		<g>
			<g>
				<path fill="#19486F" d="M48.248,36.771v2.48c-0.051-0.082-0.066-0.168-0.066-0.256v-2.482
					C48.182,36.604,48.197,36.689,48.248,36.771"/>
			</g>
			<path fill="#19486F" d="M48.182,38.996v-2.482c0,0.09,0.016,0.176,0.066,0.258v2.48C48.197,39.17,48.182,39.084,48.182,38.996z"
				/>
			<g>
				<polygon fill="#19486F" points="55.133,36.572 54.908,39.252 49.65,39.252 49.445,36.635 				"/>
			</g>
			<g>
				<path fill="#19486F" d="M58.373,36.963v2.48c-0.322,0.396-0.799,0.666-1.352,0.703v-2.48
					C57.574,37.627,58.051,37.359,58.373,36.963"/>
			</g>
			<path fill="#19486F" d="M58.373,36.963v2.48c-0.322,0.396-0.799,0.666-1.352,0.703v-2.48
				C57.574,37.627,58.051,37.359,58.373,36.963z"/>
			<g>
				<polygon fill="#19486F" points="62.42,39.814 62.42,42.295 58.373,39.443 57.592,36.281 				"/>
			</g>
			<g>
				<polygon fill="#19486F" points="49.65,36.771 49.65,39.252 43.352,46.76 43.352,44.277 				"/>
			</g>
			<g>
				<polygon fill="#19486F" points="58.385,44.496 58.385,46.977 54.908,39.252 54.908,36.771 				"/>
			</g>
			<g>
				<polygon fill="#19486F" points="63.258,45.01 62.42,48.064 61.182,48.486 61.182,46.004 				"/>
			</g>
			<g>
				<polygon fill="#19486F" points="72.092,47.697 71.633,50.467 69.482,50.467 69.482,47.988 				"/>
			</g>
			<g>
				<rect x="66.299" y="47.988" fill="#19486F" width="0.359" height="2.479"/>
			</g>
			<g>
				<path fill="#19486F" d="M73.719,46.248v2.48c0,0.076-0.004,0.148-0.014,0.219v-2.48C73.715,46.395,73.719,46.322,73.719,46.248"
					/>
				<path fill="#19486F" d="M73.705,46.467v2.48c-0.012,0.082-0.031,0.164-0.055,0.242v-2.482
					C73.674,46.631,73.693,46.549,73.705,46.467"/>
				<path fill="#19486F" d="M73.65,46.707v2.482c-0.031,0.094-0.072,0.184-0.117,0.268v-2.48
					C73.578,46.891,73.619,46.803,73.65,46.707"/>
				<path fill="#19486F" d="M73.533,46.977v2.48c-0.348,0.627-1.125,1.01-1.9,1.01v-2.479
					C72.408,47.988,73.186,47.604,73.533,46.977"/>
			</g>
			<path fill="#19486F" d="M73.719,46.248v2.48c0,1.049-1.043,1.738-2.086,1.738v-2.479C72.676,47.988,73.719,47.297,73.719,46.248z
				"/>
			<g>
				<path fill="#19486F" d="M64.197,48.127v2.48c-1.004-0.062-1.777-0.869-1.777-1.879v-2.48
					C62.42,47.258,63.193,48.064,64.197,48.127"/>
			</g>
			<path fill="#19486F" d="M64.197,48.127v2.48c-1.004-0.062-1.777-0.869-1.777-1.879v-2.48
				C62.42,47.258,63.193,48.064,64.197,48.127z"/>
			<g>
				<polygon fill="#19486F" points="59.236,46.645 59.236,49.125 44.061,54.445 44.061,51.963 				"/>
			</g>
			<g>
				<polygon fill="#19486F" points="62.021,52.246 62.021,54.727 59.092,48.697 58.883,45.697 				"/>
			</g>
			<g>
				<polygon fill="#19486F" points="66.633,46.947 66.299,50.467 64.277,54.779 64.277,52.297 				"/>
			</g>
			<g>
				<polygon fill="#19486F" points="64.119,56.16 64.119,58.641 63.23,56.863 63.008,53.572 				"/>
			</g>
			<g>
				<polygon fill="#19486F" points="63.23,54.381 63.23,56.863 60.783,61.836 60.783,59.357 				"/>
			</g>
			<g>
				<polygon fill="#19486F" points="57.846,60.637 57.846,63.115 44.061,60.445 44.061,57.963 				"/>
			</g>
			<g>
				<polygon fill="#19486F" points="62.42,61.607 62.42,64.088 59.92,63.5 59.383,60.822 				"/>
			</g>
			<g>
				<path fill="#19486F" d="M44.061,60.75v2.482c0,0.164-0.014,0.324-0.033,0.48v-2.48C44.047,61.076,44.061,60.916,44.061,60.75"/>
				<path fill="#19486F" d="M44.027,61.232v2.48c-0.023,0.168-0.064,0.328-0.113,0.48v-2.48
					C43.963,61.561,44.004,61.398,44.027,61.232"/>
				<path fill="#19486F" d="M43.914,61.713v2.48c-0.051,0.164-0.119,0.32-0.197,0.467v-2.48
					C43.795,62.033,43.863,61.877,43.914,61.713"/>
				<path fill="#19486F" d="M43.717,62.18v2.48c-0.23,0.416-0.572,0.756-1.012,1.002V63.18
					C43.145,62.938,43.486,62.596,43.717,62.18"/>
			</g>
			<path fill="#19486F" d="M44.061,60.75v2.482c0,1.072-0.479,1.943-1.355,2.43V63.18C43.582,62.695,44.061,61.824,44.061,60.75z"/>
			<g>
				<path fill="#19486F" d="M27.348,63.424v2.48c-1.572,0-3.066-1.1-3.066-2.672V60.75C24.281,62.324,25.775,63.424,27.348,63.424"
					/>
			</g>
			<path fill="#19486F" d="M27.348,63.424v2.48c-1.572,0-3.066-1.1-3.066-2.672V60.75C24.281,62.324,25.775,63.424,27.348,63.424z"
				/>
			<g>
				<polygon fill="#19486F" points="40.555,63.424 40.555,65.904 27.348,65.904 26.82,62.947 				"/>
			</g>
			<g>
				<polygon fill="#19486F" points="72.174,66.115 71.633,68.705 64.287,68.705 63.758,66.01 				"/>
			</g>
			<g>
				<path fill="#19486F" d="M73.719,65.316v2.48c0,0.064-0.002,0.127-0.012,0.184v-2.482C73.717,65.443,73.719,65.381,73.719,65.316
					"/>
				<path fill="#19486F" d="M73.707,65.498v2.482c-0.008,0.055-0.018,0.107-0.033,0.154v-2.48
					C73.689,65.605,73.699,65.555,73.707,65.498"/>
				<path fill="#19486F" d="M73.674,65.654v2.48c-0.016,0.049-0.037,0.092-0.057,0.133v-2.48
					C73.637,65.746,73.658,65.701,73.674,65.654"/>
				<path fill="#19486F" d="M73.617,65.787v2.48c-0.221,0.395-0.758,0.443-1.371,0.443c-0.201,0-0.406-0.006-0.613-0.006v-2.48
					c0.207,0,0.412,0.006,0.613,0.006C72.859,66.23,73.396,66.182,73.617,65.787"/>
			</g>
			<path fill="#19486F" d="M73.719,65.316v2.48c0,0.832-0.67,0.914-1.473,0.914c-0.201,0-0.406-0.006-0.613-0.006v-2.48
				c0.207,0,0.412,0.006,0.613,0.006C73.049,66.23,73.719,66.146,73.719,65.316z"/>
			<g>
				<path fill="#19486F" d="M64.287,66.225v2.48c-0.311,0-0.771,0.205-1.117,0.205c-0.109,0-0.211-0.02-0.285-0.076v-2.48
					c0.074,0.055,0.176,0.076,0.285,0.076C63.516,66.43,63.977,66.225,64.287,66.225"/>
			</g>
			<path fill="#19486F" d="M64.287,66.225v2.48c-0.311,0-0.771,0.205-1.117,0.205c-0.109,0-0.211-0.02-0.285-0.076v-2.48
				c0.074,0.055,0.176,0.076,0.285,0.076C63.516,66.43,63.977,66.225,64.287,66.225z"/>
			<g>
				<polygon fill="#19486F" points="59.92,61.02 59.92,63.5 56.609,70.1 56.609,67.619 				"/>
			</g>
			<g>
				<polygon fill="#19486F" points="63.509,65.531 62.885,68.834 58.182,72.887 58.182,70.406 				"/>
			</g>
			<g>
				<polygon fill="#19486F" points="48.287,70.971 48.287,73.449 40.555,65.904 40.133,62.572 				"/>
			</g>
			<g>
				<path fill="#19486F" d="M49.547,78.848v2.48c-1.057,0-1.26-0.818-1.26-1.867v-2.48C48.287,78.027,48.49,78.848,49.547,78.848"/>
			</g>
			<path fill="#19486F" d="M49.547,78.848v2.48c-1.057,0-1.26-0.818-1.26-1.867v-2.48C48.287,78.027,48.49,78.848,49.547,78.848z"/>
			<g>
				<path fill="#19486F" d="M58.182,76.98v2.48c0,0.223-0.012,0.434-0.041,0.631v-2.482C58.17,77.414,58.182,77.201,58.182,76.98"/>
				<path fill="#19486F" d="M58.141,77.609v2.482c-0.02,0.141-0.049,0.273-0.088,0.395v-2.48
					C58.092,77.883,58.121,77.75,58.141,77.609"/>
				<path fill="#19486F" d="M58.053,78.006v2.48c-0.029,0.1-0.07,0.193-0.117,0.277v-2.48
					C57.982,78.197,58.023,78.104,58.053,78.006"/>
				<path fill="#19486F" d="M57.936,78.283v2.48c-0.193,0.35-0.521,0.564-1.057,0.564v-2.48
					C57.414,78.848,57.742,78.633,57.936,78.283"/>
			</g>
			<path fill="#19486F" d="M58.182,76.98v2.48c0,1.049-0.26,1.867-1.303,1.867v-2.48C57.922,78.848,58.182,78.027,58.182,76.98z"/>
			<g>
				<polygon fill="#19486F" points="57.452,78.438 56.879,81.328 49.547,81.328 49.258,78.572 				"/>
			</g>
			<g>
				<path fill="#2E73B7" d="M71.633,47.988h-2.15v8.414h2.15c1.043,0,2.086,0.588,2.086,1.623v7.291c0,0.83-0.67,0.914-1.473,0.914
					c-0.201,0-0.406-0.006-0.613-0.006h-7.346c-0.311,0-0.771,0.205-1.117,0.205c-0.109,0-0.211-0.021-0.285-0.076l-4.703,4.053
					v6.574c0,1.047-0.26,1.867-1.303,1.867h-7.332c-1.057,0-1.26-0.82-1.26-1.867v-6.01l-7.732-7.547H27.348
					c-1.572,0-3.066-1.1-3.066-2.674V46.734c0-1.562,1.494-2.955,3.066-2.955h14.119l0.377,0.09l6.404-7.098
					c-0.17-0.283,0.039-0.615,0.039-0.973V28.51c0-1.037,0.203-2.955,1.26-2.955h7.332c1.043,0,1.303,1.918,1.303,2.955v6.432
					l4.328,2.699c0.348-0.436,1.172-0.869,1.777-0.869h7.346c1.043,0,2.086,1.15,2.086,2.199v7.277
					C73.719,47.297,72.676,47.988,71.633,47.988z M62.021,52.246l-2.785-5.602l-15.176,5.318v4.082l14.646,2.928L62.021,52.246
					 M49.65,36.771l-6.299,7.506c0.514,0.512,0.709,1.676,0.709,2.457v3.223l14.324-5.461l-3.477-7.725H49.65 M49.547,67.619h4.936
					l3.363-6.982l-13.785-2.674v2.787c0,1.074-0.479,1.945-1.355,2.43l5.297,5.334C48.348,68.029,48.902,67.619,49.547,67.619
					 M62.42,65.061v-3.453l-2.5-0.588l-3.311,6.6h0.27c0.543,0,1.043,0.332,1.391,0.689L62.42,65.061 M58.373,36.963
					c-0.322,0.396-0.799,0.664-1.352,0.703l3.311,6.637l2.088-0.729v-3.76L58.373,36.963 M66.658,56.402v-8.414h-0.359l-2.021,4.309
					l1.945,4.105H66.658 M62.42,58.025c0-0.971,0.746-1.764,1.699-1.865l-0.889-1.779l-2.447,4.977l1.637,0.332V58.025
					 M63.219,50.109l0.979-1.982c-1.004-0.062-1.777-0.869-1.777-1.879v-0.666l-1.238,0.422L63.219,50.109"/>
			</g>
		</g>
	</g>
	<g>
		<path fill="#FFFFFF" stroke="#19486F" stroke-miterlimit="10" d="M54.5,56.5c0,2.209-1.791,4-4,4h-18c-2.209,0-4-1.791-4-4v-6
			c0-2.209,1.791-4,4-4h18c2.209,0,4,1.791,4,4V56.5z"/>
		<text transform="matrix(1 0 0 1 31.8545 57.4502)" fill="#2E73B7" font-family="'HelveticaNeue-CondensedBold'" font-size="11">DW1</text>
	</g>
</g>
<g id="nyt_x5F_exporter_x5F_info" display="none">
</g>
</svg>
