<?xml version="1.0" encoding="utf-8"?>
<!-- Generator: Adobe Illustrator 16.0.0, SVG Export Plug-In . SVG Version: 6.00 Build 0)  -->
<svg version="1.2" baseProfile="tiny" xmlns="http://www.w3.org/2000/svg" xmlns:xlink="http://www.w3.org/1999/xlink" x="0px"
	 y="0px" width="98px" height="98px" viewBox="0 0 98 98" xml:space="preserve">
<g id="Layer_1">
	<g>
		<g>
			<g>
				<line fill="#19486F" x1="75.418" y1="24.543" x2="75.418" y2="27.145"/>
			</g>
			<g>
				<path fill="#19486F" d="M51.252,45.5v2.602c-0.053,0.09-0.092,0.184-0.127,0.279v-2.604C51.16,45.682,51.199,45.588,51.252,45.5
					"/>
				<path fill="#19486F" d="M51.125,45.777v2.604c-0.014,0.045-0.025,0.094-0.037,0.141v-2.605
					C51.1,45.869,51.111,45.822,51.125,45.777"/>
			</g>
			<path fill="#19486F" d="M75.096,46.799c-3.736-1.236-7.826-1.4-11.305-1.4c-5.078,0-11.492,1.166-12.74,2.891l-0.047-2.377
				c0.459-2.094,6.449-3.871,11.727-3.871c1.789,0,9.818,0.812,12.387,2.145"/>
			<g>
				<path fill="#2E73B7" d="M64.586,47.768c2.195,0,4.057,0.176,5.6,0.42c3.301,0.549,5.045,1.486,5.045,2.066
					c0,0.576-1.744,1.512-5.045,2.049c-1.543,0.258-3.404,0.416-5.6,0.416c-6.893,0-10.646-1.631-10.646-2.465
					C53.939,49.414,57.693,47.768,64.586,47.768z"/>
			</g>
			<g>
				<path fill="#19486F" d="M75.23,50.254v2.797c0,0.016,0,0.033-0.002,0.049v-2.801C75.23,50.283,75.23,50.268,75.23,50.254"/>
				<path fill="#19486F" d="M75.229,50.299V53.1c-0.004,0.018-0.008,0.035-0.016,0.057v-2.801
					C75.221,50.336,75.225,50.316,75.229,50.299"/>
				<path fill="#19486F" d="M75.213,50.355v2.801c-0.008,0.025-0.021,0.053-0.035,0.086v-2.805
					C75.191,50.412,75.205,50.383,75.213,50.355"/>
				<path fill="#19486F" d="M75.178,50.438v2.805c-0.32,0.576-2.031,1.379-4.992,1.857c-1.543,0.264-3.404,0.42-5.6,0.42
					c-6.893,0-10.646-1.629-10.646-2.469v-2.797c0,0.834,3.754,2.465,10.646,2.465c2.195,0,4.057-0.158,5.6-0.416
					C73.146,51.82,74.857,51.018,75.178,50.438"/>
			</g>
			<path fill="#19486F" d="M75.23,50.254v2.797c0,0.58-1.744,1.518-5.045,2.049c-1.543,0.264-3.404,0.42-5.6,0.42
				c-6.893,0-10.646-1.629-10.646-2.469v-2.797c0,0.834,3.754,2.465,10.646,2.465c2.195,0,4.057-0.158,5.6-0.416
				C73.486,51.766,75.23,50.83,75.23,50.254z"/>
			<g>
				<g>
					<path fill="#19486F" d="M75.406,72.189v2.803c0,0.02-0.002,0.041-0.006,0.062v-2.803
						C75.404,72.234,75.406,72.213,75.406,72.189"/>
					<path fill="#19486F" d="M75.4,72.252v2.803c-0.002,0.025-0.01,0.049-0.02,0.072v-2.799
						C75.391,72.303,75.398,72.279,75.4,72.252"/>
					<path fill="#19486F" d="M75.381,72.328v2.799c-0.01,0.041-0.027,0.08-0.053,0.121v-2.803
						C75.354,72.408,75.371,72.367,75.381,72.328"/>
				</g>
				<path fill="#19486F" d="M65.338,74.551c-3.895,0-6.889-0.351-9.02-1l0.002-1.082c-1.324-0.643-2.26-1.371-2.367-1.918
					l0.01,4.578c0.211,0.326,0.68,0.666,2.346,1.227V76.35c2.133,0.653,5.076,1.109,8.977,1.109c7.154,0,10.121-1.6,10.121-2.467
					v-2.803C75.406,73.059,72.492,74.551,65.338,74.551z"/>
			</g>
			<path fill="#19486F" d="M26.756,73.479v2.605c-2.219,0-4.018-1.787-4.018-4.002l-0.129-2.545
				C22.609,71.748,24.537,73.479,26.756,73.479z"/>
			<g>
				<polygon fill="#19486F" points="52.602,73.451 52.602,76.055 26.756,76.084 26.191,72.662 				"/>
			</g>
			<g>
				<path fill="#2E73B7" d="M75.133,44.518c-3.807-1.332-10.055-1.381-11.842-1.355c-5.215,0.07-11.16,1.309-12.156,2.85
					l-0.041,0.309l0.014,0.953l-0.014,24.822c0,0.455,0.979,1.064,1.51,1.361L26.6,73.479c-2.217,0-4.018-1.789-4.018-4V24.529
					c0-2.201,1.801-3.986,4.018-3.986l44.67-0.002c2.223,0,4.02,1.785,4.02,4.002"/>
			</g>
			<g>
				<path fill="#2E73B7" d="M75.418,55.1l-0.012,17.09c0,0.869-2.967,2.473-10.121,2.473c-3.912,0-6.863-0.465-8.787-1.027
					c-1.424-0.463-2.428-0.98-2.543-1.371V55.262c2.082,1.287,6.371,1.959,10.631,1.959h0.277c0.449-0.014,0.871-0.014,1.307-0.027
					l0.176-0.012c0.379-0.016,0.729-0.031,1.092-0.061c0.188-0.012,0.361-0.027,0.537-0.043c0.289-0.027,0.566-0.043,0.842-0.07
					c0.162-0.031,0.307-0.045,0.453-0.074c0.305-0.029,0.596-0.07,0.9-0.111C72.496,56.443,74.299,55.824,75.418,55.1z"/>
			</g>
		</g>
	</g>
	<g>
		<g>
			<path fill="#FFFFFF" d="M62.041,67.005c0,1.682,1.318,2.336,2.815,2.336c0.979,0,2.477-0.282,2.477-1.575
				c0-1.362-1.906-1.592-3.777-2.088c-1.89-0.497-3.796-1.222-3.796-3.593c0-2.584,2.459-3.823,4.758-3.823
				c2.655,0,5.097,1.151,5.097,4.071h-2.709c-0.089-1.522-1.177-1.911-2.513-1.911c-0.891,0-1.925,0.372-1.925,1.434
				c0,0.973,0.606,1.099,3.796,1.912c0.927,0.23,3.778,0.813,3.778,3.68c0,2.318-1.836,4.054-5.293,4.054
				c-2.814,0-5.453-1.381-5.417-4.496H62.041z"/>
		</g>
	</g>
</g>
<g id="nyt_x5F_exporter_x5F_info" display="none">
</g>
</svg>
