<?xml version="1.0" encoding="utf-8"?>
<!-- Generator: Adobe Illustrator 16.0.0, SVG Export Plug-In . SVG Version: 6.00 Build 0)  -->
<svg version="1.2" baseProfile="tiny" xmlns="http://www.w3.org/2000/svg" xmlns:xlink="http://www.w3.org/1999/xlink" x="0px"
	 y="0px" width="100px" height="100px" viewBox="0 0 100 100" xml:space="preserve">
<g id="Layer_1">
	<g>
	</g>
	<text transform="matrix(1 0 0 1 25.6348 35.6836)" fill="#FFFFFF" font-family="'HelveticaNeue-CondensedBold'" font-size="11">P</text>
	<text transform="matrix(1 0 0 1 31.1455 35.6836)" fill="#FFFFFF" font-family="'HelveticaNeue-CondensedBold'" font-size="11">o</text>
	<text transform="matrix(1 0 0 1 36.4258 35.6836)" fill="#FFFFFF" font-family="'HelveticaNeue-CondensedBold'" font-size="11">s</text>
	<text transform="matrix(1 0 0 1 41.3096 35.6836)" fill="#FFFFFF" font-family="'HelveticaNeue-CondensedBold'" font-size="11">t</text>
	<text transform="matrix(1 0 0 1 44.5654 35.6836)" fill="#FFFFFF" font-family="'HelveticaNeue-CondensedBold'" font-size="11">g</text>
	<text transform="matrix(1 0 0 1 50.0654 35.6836)" fill="#FFFFFF" font-family="'HelveticaNeue-CondensedBold'" font-size="11">r</text>
	<text transform="matrix(1 0 0 1 53.7285 35.6836)" fill="#FFFFFF" font-family="'HelveticaNeue-CondensedBold'" font-size="11">e</text>
	<text transform="matrix(1 0 0 1 58.8213 35.6836)" fill="#FFFFFF" font-family="'HelveticaNeue-CondensedBold'" font-size="11">S</text>
	<text transform="matrix(1 0 0 1 64.5303 35.6836)" fill="#FFFFFF" font-family="'HelveticaNeue-CondensedBold'" font-size="11">Q</text>
	<text transform="matrix(1 0 0 1 70.6465 35.6836)" fill="#FFFFFF" font-family="'HelveticaNeue-CondensedBold'" font-size="11">L</text>
	<g>
		<g>
			<g>
				<path fill="#19486F" d="M78.164,65.088v2.615c0,0.363-0.025,0.721-0.074,1.07V66.16C78.139,65.809,78.164,65.453,78.164,65.088"
					/>
				<path fill="#19486F" d="M78.09,66.16v2.613c-0.062,0.414-0.156,0.818-0.279,1.207v-2.613
					C77.934,66.977,78.027,66.572,78.09,66.16"/>
				<path fill="#19486F" d="M77.811,67.367v2.613c-0.146,0.459-0.34,0.9-0.57,1.316v-2.613
					C77.471,68.266,77.664,67.826,77.811,67.367"/>
			</g>
			<path fill="#19486F" d="M78.164,65.088v2.615c0,4.137-3.381,7.494-7.549,7.494v-2.615C74.783,72.582,78.164,69.225,78.164,65.088
				z"/>
			<g>
				<polygon fill="#19486F" points="71.754,71.781 70.615,75.197 32.994,75.197 32.994,72.582 				"/>
			</g>
			<path fill="#19486F" d="M32.994,72.582v2.615c-4.166,0-7.537-3.357-7.537-7.494v-2.615
				C25.457,69.225,28.828,72.582,32.994,72.582z"/>
			<g>
				<path fill="#2E73B7" d="M70.615,19.213c4.168,0,7.549,3.342,7.549,7.48v38.395c0,4.137-3.381,7.494-7.549,7.494H32.994
					c-4.166,0-7.537-3.357-7.537-7.494V26.693c0-4.139,3.371-7.48,7.537-7.48H70.615z"/>
			</g>
		</g>
	</g>
	<text transform="matrix(1 0 0 1 26.7568 34.6094)" fill="#FFFFFF" font-family="'HelveticaNeue-CondensedBold'" font-size="11">P</text>
	<text transform="matrix(1 0 0 1 32.2676 34.6094)" fill="#FFFFFF" font-family="'HelveticaNeue-CondensedBold'" font-size="11">o</text>
	<text transform="matrix(1 0 0 1 37.5479 34.6094)" fill="#FFFFFF" font-family="'HelveticaNeue-CondensedBold'" font-size="11">s</text>
	<text transform="matrix(1 0 0 1 42.4316 34.6094)" fill="#FFFFFF" font-family="'HelveticaNeue-CondensedBold'" font-size="11">t</text>
	<text transform="matrix(1 0 0 1 45.6875 34.6094)" fill="#FFFFFF" font-family="'HelveticaNeue-CondensedBold'" font-size="11">g</text>
	<text transform="matrix(1 0 0 1 51.1875 34.6094)" fill="#FFFFFF" font-family="'HelveticaNeue-CondensedBold'" font-size="11">r</text>
	<text transform="matrix(1 0 0 1 54.8506 34.6094)" fill="#FFFFFF" font-family="'HelveticaNeue-CondensedBold'" font-size="11">e</text>
	<text transform="matrix(1 0 0 1 59.9434 34.6094)" fill="#FFFFFF" font-family="'HelveticaNeue-CondensedBold'" font-size="11">S</text>
	<text transform="matrix(1 0 0 1 65.6523 34.6094)" fill="#FFFFFF" font-family="'HelveticaNeue-CondensedBold'" font-size="11">Q</text>
	<text transform="matrix(1 0 0 1 71.7686 34.6094)" fill="#FFFFFF" font-family="'HelveticaNeue-CondensedBold'" font-size="11">L</text>
</g>
<g id="nyt_x5F_exporter_x5F_info" display="none">
</g>
</svg>
