<?xml version="1.0" encoding="utf-8"?>
<!-- Generator: Adobe Illustrator 16.0.0, SVG Export Plug-In . SVG Version: 6.00 Build 0)  -->
<svg version="1.2" baseProfile="tiny" xmlns="http://www.w3.org/2000/svg" xmlns:xlink="http://www.w3.org/1999/xlink" x="0px"
	 y="0px" width="101px" height="101px" viewBox="0 0 101 101" xml:space="preserve">
<g id="Layer_1">
	<g>
		<g>
			<g>
				<rect x="46.797" y="19.029" fill="#2E73B7" width="29.38" height="9.428"/>
			</g>
			<g>
				<rect x="46.797" y="28.457" fill="#19486F" width="29.38" height="2.494"/>
			</g>
		</g>
		<g>
			<g>
				<rect x="34.658" y="33.395" fill="#2E73B7" width="8.604" height="11.098"/>
			</g>
			<g>
				<rect x="34.658" y="44.492" fill="#19486F" width="8.604" height="2.494"/>
			</g>
		</g>
		<g>
			<g>
				<rect x="34.658" y="49.443" fill="#2E73B7" width="8.604" height="9.412"/>
			</g>
			<g>
				<rect x="34.658" y="58.855" fill="#19486F" width="8.604" height="2.494"/>
			</g>
		</g>
		<g>
			<g>
				<rect x="34.658" y="63.795" fill="#2E73B7" width="8.604" height="9.348"/>
			</g>
			<g>
				<rect x="34.658" y="73.143" fill="#19486F" width="8.604" height="2.496"/>
			</g>
		</g>
		<g>
			<g>
				<rect x="46.797" y="33.395" fill="#2E73B7" width="29.38" height="11.098"/>
			</g>
			<g>
				<rect x="46.797" y="44.492" fill="#19486F" width="29.38" height="2.494"/>
			</g>
		</g>
		<g>
			<g>
				<rect x="46.797" y="63.795" fill="#2E73B7" width="29.38" height="9.348"/>
			</g>
			<g>
				<rect x="46.797" y="73.143" fill="#19486F" width="29.38" height="2.496"/>
			</g>
		</g>
		<g>
			<g>
				<rect x="46.797" y="49.443" fill="#2E73B7" width="29.38" height="9.412"/>
			</g>
			<g>
				<rect x="46.797" y="58.855" fill="#19486F" width="29.38" height="2.494"/>
			</g>
		</g>
		<g>
			<g>
				<rect x="34.658" y="19.029" fill="#2E73B7" width="8.604" height="9.428"/>
			</g>
			<g>
				<rect x="34.658" y="28.457" fill="#19486F" width="8.604" height="2.494"/>
			</g>
		</g>
	</g>
	<g>
		<g>
			<rect x="23.158" y="33.395" fill="#2E73B7" width="8.604" height="11.098"/>
		</g>
		<g>
			<rect x="23.158" y="44.492" fill="#19486F" width="8.604" height="2.494"/>
		</g>
	</g>
	<g>
		<g>
			<rect x="23.158" y="49.443" fill="#2E73B7" width="8.604" height="9.412"/>
		</g>
		<g>
			<rect x="23.158" y="58.855" fill="#19486F" width="8.604" height="2.494"/>
		</g>
	</g>
	<g>
		<g>
			<rect x="23.158" y="63.795" fill="#2E73B7" width="8.604" height="9.348"/>
		</g>
		<g>
			<rect x="23.158" y="73.143" fill="#19486F" width="8.604" height="2.496"/>
		</g>
	</g>
	<g>
		<g>
			<rect x="23.158" y="19.029" fill="#2E73B7" width="8.604" height="9.428"/>
		</g>
		<g>
			<rect x="23.158" y="28.457" fill="#19486F" width="8.604" height="2.494"/>
		</g>
	</g>
</g>
<g id="nyt_x5F_exporter_x5F_info" display="none">
</g>
</svg>
