<?xml version="1.0" encoding="utf-8"?>
<!-- Generator: Adobe Illustrator 16.0.0, SVG Export Plug-In . SVG Version: 6.00 Build 0)  -->
<svg version="1.2" baseProfile="tiny" xmlns="http://www.w3.org/2000/svg" xmlns:xlink="http://www.w3.org/1999/xlink" x="0px"
	 y="0px" width="99px" height="99px" viewBox="0 0 99 99" xml:space="preserve">
<g id="Layer_1">
	<g>
	</g>
	<g>
		<g>
			<g>
				<g>
					<line fill="#19486F" x1="75.354" y1="25.043" x2="75.354" y2="27.645"/>
				</g>
				<g>
					<path fill="#19486F" d="M51.188,46v2.602c-0.053,0.09-0.092,0.184-0.127,0.279v-2.604C51.096,46.182,51.135,46.088,51.188,46"
						/>
					<path fill="#19486F" d="M51.061,46.277v2.604c-0.014,0.045-0.025,0.094-0.037,0.141v-2.605
						C51.035,46.369,51.047,46.322,51.061,46.277"/>
				</g>
				<path fill="#19486F" d="M75.031,47.299c-3.736-1.236-7.826-1.4-11.305-1.4c-5.078,0-11.492,1.166-12.74,2.891l-0.047-2.377
					c0.459-2.094,6.449-3.871,11.727-3.871c1.789,0,9.818,0.812,12.387,2.145"/>
				<g>
					<path fill="#2E73B7" d="M64.521,48.268c2.195,0,4.057,0.176,5.6,0.42c3.301,0.549,5.045,1.486,5.045,2.066
						c0,0.576-1.744,1.512-5.045,2.049c-1.543,0.258-3.404,0.416-5.6,0.416c-6.893,0-10.646-1.631-10.646-2.465
						C53.875,49.914,57.629,48.268,64.521,48.268z"/>
				</g>
				<g>
					<path fill="#19486F" d="M75.166,50.754v2.797c0,0.016,0,0.033-0.002,0.049v-2.801C75.166,50.783,75.166,50.768,75.166,50.754"
						/>
					<path fill="#19486F" d="M75.164,50.799V53.6c-0.004,0.018-0.008,0.035-0.016,0.057v-2.801
						C75.156,50.836,75.16,50.816,75.164,50.799"/>
					<path fill="#19486F" d="M75.148,50.855v2.801c-0.008,0.025-0.021,0.053-0.035,0.086v-2.805
						C75.127,50.912,75.141,50.883,75.148,50.855"/>
					<path fill="#19486F" d="M75.113,50.938v2.805c-0.32,0.576-2.031,1.379-4.992,1.857c-1.543,0.264-3.404,0.42-5.6,0.42
						c-6.893,0-10.646-1.629-10.646-2.469v-2.797c0,0.834,3.754,2.465,10.646,2.465c2.195,0,4.057-0.158,5.6-0.416
						C73.082,52.32,74.793,51.518,75.113,50.938"/>
				</g>
				<path fill="#19486F" d="M75.166,50.754v2.797c0,0.58-1.744,1.518-5.045,2.049c-1.543,0.264-3.404,0.42-5.6,0.42
					c-6.893,0-10.646-1.629-10.646-2.469v-2.797c0,0.834,3.754,2.465,10.646,2.465c2.195,0,4.057-0.158,5.6-0.416
					C73.422,52.266,75.166,51.33,75.166,50.754z"/>
				<g>
					<g>
						<path fill="#19486F" d="M75.342,72.689v2.803c0,0.02-0.002,0.041-0.006,0.062v-2.803
							C75.34,72.734,75.342,72.713,75.342,72.689"/>
						<path fill="#19486F" d="M75.336,72.752v2.803c-0.002,0.025-0.01,0.049-0.02,0.072v-2.799
							C75.326,72.803,75.334,72.779,75.336,72.752"/>
						<path fill="#19486F" d="M75.316,72.828v2.799c-0.01,0.041-0.027,0.08-0.053,0.121v-2.803
							C75.289,72.908,75.307,72.867,75.316,72.828"/>
					</g>
					<path fill="#19486F" d="M65.273,75.051c-3.895,0-6.889-0.351-9.02-1l0.002-1.082c-1.324-0.643-2.26-1.371-2.367-1.918
						l0.01,4.578c0.211,0.326,0.68,0.666,2.346,1.227V76.85c2.133,0.653,5.076,1.109,8.977,1.109c7.154,0,10.121-1.6,10.121-2.467
						v-2.803C75.342,73.559,72.428,75.051,65.273,75.051z"/>
				</g>
				<path fill="#19486F" d="M26.691,73.979v2.605c-2.219,0-4.018-1.787-4.018-4.002l-0.129-2.545
					C22.545,72.248,24.473,73.979,26.691,73.979z"/>
				<g>
					<polygon fill="#19486F" points="52.537,73.951 52.537,76.555 26.691,76.584 26.127,73.162 					"/>
				</g>
				<g>
					<path fill="#2E73B7" d="M75.068,45.018c-3.807-1.332-10.055-1.381-11.842-1.355c-5.215,0.07-11.16,1.309-12.156,2.85
						l-0.041,0.309l0.014,0.953l-0.014,24.822c0,0.455,0.979,1.064,1.51,1.361l-26.004,0.021c-2.217,0-4.018-1.789-4.018-4V25.029
						c0-2.201,1.801-3.986,4.018-3.986l44.67-0.002c2.223,0,4.02,1.785,4.02,4.002"/>
				</g>
				<g>
					<path fill="#2E73B7" d="M75.354,55.6l-0.012,17.09c0,0.869-2.967,2.473-10.121,2.473c-3.912,0-6.863-0.465-8.787-1.027
						c-1.424-0.463-2.428-0.98-2.543-1.371V55.762c2.082,1.287,6.371,1.959,10.631,1.959h0.277c0.449-0.014,0.871-0.014,1.307-0.027
						l0.176-0.012c0.379-0.016,0.729-0.031,1.092-0.061c0.188-0.012,0.361-0.027,0.537-0.043c0.289-0.027,0.566-0.043,0.842-0.07
						c0.162-0.031,0.307-0.045,0.453-0.074c0.305-0.029,0.596-0.07,0.9-0.111C72.432,56.943,74.234,56.324,75.354,55.6z"/>
				</g>
			</g>
			<polygon fill="#FFFFFF" points="64.66,69.297 64.625,69.297 62.352,59.811 59.137,59.811 59.137,72.613 61.084,72.613 
				61.084,61.965 61.119,61.965 63.721,72.613 65.455,72.613 68.057,61.965 68.092,61.965 68.092,72.613 70.039,72.613 
				70.039,59.811 66.898,59.811 			"/>
		</g>
	</g>
</g>
<g id="nyt_x5F_exporter_x5F_info" display="none">
</g>
</svg>
