<?xml version="1.0" encoding="utf-8"?>
<!-- Generator: Adobe Illustrator 16.0.0, SVG Export Plug-In . SVG Version: 6.00 Build 0)  -->
<svg version="1.2" baseProfile="tiny" xmlns="http://www.w3.org/2000/svg" xmlns:xlink="http://www.w3.org/1999/xlink" x="0px"
	 y="0px" width="100px" height="100px" viewBox="0 0 100 100" xml:space="preserve">
<g id="Layer_1">
	<g>
	</g>
	<g>
		<g>
			<g>
				<path fill="#19486F" d="M78.443,67.107v2.615c0,0.363-0.025,0.721-0.074,1.07V68.18C78.418,67.828,78.443,67.473,78.443,67.107"
					/>
				<path fill="#19486F" d="M78.369,68.18v2.613c-0.062,0.414-0.156,0.818-0.279,1.207v-2.613
					C78.213,68.996,78.307,68.592,78.369,68.18"/>
				<path fill="#19486F" d="M78.09,69.387V72c-0.146,0.459-0.34,0.9-0.57,1.316v-2.613C77.75,70.285,77.943,69.846,78.09,69.387"/>
			</g>
			<path fill="#19486F" d="M78.443,67.107v2.615c0,4.137-3.381,7.494-7.549,7.494v-2.615C75.062,74.602,78.443,71.244,78.443,67.107
				z"/>
			<g>
				<polygon fill="#19486F" points="72.033,73.801 70.895,77.217 33.273,77.217 33.273,74.602 				"/>
			</g>
			<path fill="#19486F" d="M33.273,74.602v2.615c-4.166,0-7.537-3.357-7.537-7.494v-2.615
				C25.736,71.244,29.107,74.602,33.273,74.602z"/>
			<g>
				<path fill="#2E73B7" d="M70.895,21.232c4.168,0,7.549,3.342,7.549,7.48v38.395c0,4.137-3.381,7.494-7.549,7.494H33.273
					c-4.166,0-7.537-3.357-7.537-7.494V28.713c0-4.139,3.371-7.48,7.537-7.48H70.895z"/>
			</g>
		</g>
	</g>
	<text transform="matrix(1 0 0 1 34.4775 36.6289)" fill="#FFFFFF" font-family="'HelveticaNeue-CondensedBold'" font-size="14">O</text>
	<text transform="matrix(1 0 0 1 42.2617 36.6289)" fill="#FFFFFF" font-family="'HelveticaNeue-CondensedBold'" font-size="14">r</text>
	<text transform="matrix(1 0 0 1 46.9238 36.6289)" fill="#FFFFFF" font-family="'HelveticaNeue-CondensedBold'" font-size="14">a</text>
	<text transform="matrix(1 0 0 1 53.6572 36.6289)" fill="#FFFFFF" font-family="'HelveticaNeue-CondensedBold'" font-size="14">c</text>
	<text transform="matrix(1 0 0 1 59.8594 36.6289)" fill="#FFFFFF" font-family="'HelveticaNeue-CondensedBold'" font-size="14">l</text>
	<text transform="matrix(1 0 0 1 63.2197 36.6289)" fill="#FFFFFF" font-family="'HelveticaNeue-CondensedBold'" font-size="14">e</text>
</g>
<g id="nyt_x5F_exporter_x5F_info" display="none">
</g>
</svg>
