<?xml version="1.0" encoding="utf-8"?>
<!-- Generator: Adobe Illustrator 16.0.0, SVG Export Plug-In . SVG Version: 6.00 Build 0)  -->
<svg version="1.2" baseProfile="tiny" xmlns="http://www.w3.org/2000/svg" xmlns:xlink="http://www.w3.org/1999/xlink" x="0px"
	 y="0px" width="100px" height="100px" viewBox="0 0 100 100" xml:space="preserve">
<g id="Layer_1">
	<g>
	</g>
	<g>
		<g>
			<g>
				<path fill="#19486F" d="M79.349,67.883v2.615c0,0.363-0.025,0.721-0.074,1.07v-2.613C79.323,68.604,79.349,68.248,79.349,67.883
					"/>
				<path fill="#19486F" d="M79.274,68.955v2.613c-0.062,0.414-0.156,0.818-0.279,1.207v-2.613
					C79.118,69.771,79.212,69.367,79.274,68.955"/>
				<path fill="#19486F" d="M78.995,70.162v2.613c-0.146,0.459-0.34,0.9-0.57,1.316v-2.613
					C78.655,71.061,78.849,70.621,78.995,70.162"/>
			</g>
			<path fill="#19486F" d="M79.349,67.883v2.615c0,4.137-3.381,7.494-7.549,7.494v-2.615C75.968,75.377,79.349,72.02,79.349,67.883z
				"/>
			<g>
				<polygon fill="#19486F" points="72.938,74.576 71.8,77.992 34.179,77.992 34.179,75.377 				"/>
			</g>
			<path fill="#19486F" d="M34.179,75.377v2.615c-4.166,0-7.537-3.357-7.537-7.494v-2.615C26.642,72.02,30.013,75.377,34.179,75.377
				z"/>
			<g>
				<path fill="#2E73B7" d="M71.8,22.008c4.168,0,7.549,3.342,7.549,7.48v38.395c0,4.137-3.381,7.494-7.549,7.494H34.179
					c-4.166,0-7.537-3.357-7.537-7.494V29.488c0-4.139,3.371-7.48,7.537-7.48H71.8z"/>
			</g>
		</g>
	</g>
	<text transform="matrix(1 0 0 1 31.9414 37.4043)" fill="#FFFFFF" font-family="'HelveticaNeue-CondensedBold'" font-size="14">MS SQL</text>
</g>
<g id="nyt_x5F_exporter_x5F_info" display="none">
</g>
</svg>
