<?xml version="1.0" encoding="utf-8"?>
<!-- Generator: Adobe Illustrator 16.0.0, SVG Export Plug-In . SVG Version: 6.00 Build 0)  -->
<svg version="1.2" baseProfile="tiny" xmlns="http://www.w3.org/2000/svg" xmlns:xlink="http://www.w3.org/1999/xlink" x="0px"
	 y="0px" width="99px" height="99px" viewBox="0 0 99 99" xml:space="preserve">
<g id="Layer_1">
	<g>
		<g>
			<g>
				<path fill="#19486F" d="M47.248,32.771v2.48c-0.051-0.082-0.066-0.168-0.066-0.256v-2.482
					C47.182,32.604,47.197,32.689,47.248,32.771"/>
			</g>
			<path fill="#19486F" d="M47.182,34.996v-2.482c0,0.09,0.016,0.176,0.066,0.258v2.48C47.197,35.17,47.182,35.084,47.182,34.996z"
				/>
			<g>
				<polygon fill="#19486F" points="54.133,32.572 53.908,35.252 48.65,35.252 48.445,32.635 				"/>
			</g>
			<g>
				<path fill="#19486F" d="M57.373,32.963v2.48c-0.322,0.396-0.799,0.666-1.352,0.703v-2.48
					C56.574,33.627,57.051,33.359,57.373,32.963"/>
			</g>
			<path fill="#19486F" d="M57.373,32.963v2.48c-0.322,0.396-0.799,0.666-1.352,0.703v-2.48
				C56.574,33.627,57.051,33.359,57.373,32.963z"/>
			<g>
				<polygon fill="#19486F" points="61.42,35.814 61.42,38.295 57.373,35.443 56.592,32.281 				"/>
			</g>
			<g>
				<polygon fill="#19486F" points="48.65,32.771 48.65,35.252 42.352,42.76 42.352,40.277 				"/>
			</g>
			<g>
				<polygon fill="#19486F" points="57.385,40.496 57.385,42.977 53.908,35.252 53.908,32.771 				"/>
			</g>
			<g>
				<polygon fill="#19486F" points="62.258,41.01 61.42,44.064 60.182,44.486 60.182,42.004 				"/>
			</g>
			<g>
				<polygon fill="#19486F" points="71.092,43.697 70.633,46.467 68.482,46.467 68.482,43.988 				"/>
			</g>
			<g>
				<rect x="65.299" y="43.988" fill="#19486F" width="0.359" height="2.479"/>
			</g>
			<g>
				<path fill="#19486F" d="M72.719,42.248v2.48c0,0.076-0.004,0.148-0.014,0.219v-2.48C72.715,42.395,72.719,42.322,72.719,42.248"
					/>
				<path fill="#19486F" d="M72.705,42.467v2.48c-0.012,0.082-0.031,0.164-0.055,0.242v-2.482
					C72.674,42.631,72.693,42.549,72.705,42.467"/>
				<path fill="#19486F" d="M72.65,42.707v2.482c-0.031,0.094-0.072,0.184-0.117,0.268v-2.48
					C72.578,42.891,72.619,42.803,72.65,42.707"/>
				<path fill="#19486F" d="M72.533,42.977v2.48c-0.348,0.627-1.125,1.01-1.9,1.01v-2.479
					C71.408,43.988,72.186,43.604,72.533,42.977"/>
			</g>
			<path fill="#19486F" d="M72.719,42.248v2.48c0,1.049-1.043,1.738-2.086,1.738v-2.479C71.676,43.988,72.719,43.297,72.719,42.248z
				"/>
			<g>
				<path fill="#19486F" d="M63.197,44.127v2.48c-1.004-0.062-1.777-0.869-1.777-1.879v-2.48
					C61.42,43.258,62.193,44.064,63.197,44.127"/>
			</g>
			<path fill="#19486F" d="M63.197,44.127v2.48c-1.004-0.062-1.777-0.869-1.777-1.879v-2.48
				C61.42,43.258,62.193,44.064,63.197,44.127z"/>
			<g>
				<polygon fill="#19486F" points="58.236,42.645 58.236,45.125 43.061,50.445 43.061,47.963 				"/>
			</g>
			<g>
				<polygon fill="#19486F" points="61.021,48.246 61.021,50.727 58.092,44.697 57.883,41.697 				"/>
			</g>
			<g>
				<polygon fill="#19486F" points="65.633,42.947 65.299,46.467 63.277,50.779 63.277,48.297 				"/>
			</g>
			<g>
				<polygon fill="#19486F" points="63.119,52.16 63.119,54.641 62.23,52.863 62.008,49.572 				"/>
			</g>
			<g>
				<polygon fill="#19486F" points="62.23,50.381 62.23,52.863 59.783,57.836 59.783,55.357 				"/>
			</g>
			<g>
				<polygon fill="#19486F" points="56.846,56.637 56.846,59.115 43.061,56.445 43.061,53.963 				"/>
			</g>
			<g>
				<polygon fill="#19486F" points="61.42,57.607 61.42,60.088 58.92,59.5 58.383,56.822 				"/>
			</g>
			<g>
				<path fill="#19486F" d="M43.061,56.75v2.482c0,0.164-0.014,0.324-0.033,0.48v-2.48C43.047,57.076,43.061,56.916,43.061,56.75"/>
				<path fill="#19486F" d="M43.027,57.232v2.48c-0.023,0.168-0.064,0.328-0.113,0.48v-2.48
					C42.963,57.561,43.004,57.398,43.027,57.232"/>
				<path fill="#19486F" d="M42.914,57.713v2.48c-0.051,0.164-0.119,0.32-0.197,0.467v-2.48
					C42.795,58.033,42.863,57.877,42.914,57.713"/>
				<path fill="#19486F" d="M42.717,58.18v2.48c-0.23,0.416-0.572,0.756-1.012,1.002V59.18
					C42.145,58.938,42.486,58.596,42.717,58.18"/>
			</g>
			<path fill="#19486F" d="M43.061,56.75v2.482c0,1.072-0.479,1.943-1.355,2.43V59.18C42.582,58.695,43.061,57.824,43.061,56.75z"/>
			<g>
				<path fill="#19486F" d="M26.348,59.424v2.48c-1.572,0-3.066-1.1-3.066-2.672V56.75C23.281,58.324,24.775,59.424,26.348,59.424"
					/>
			</g>
			<path fill="#19486F" d="M26.348,59.424v2.48c-1.572,0-3.066-1.1-3.066-2.672V56.75C23.281,58.324,24.775,59.424,26.348,59.424z"
				/>
			<g>
				<polygon fill="#19486F" points="39.555,59.424 39.555,61.904 26.348,61.904 25.82,58.947 				"/>
			</g>
			<g>
				<polygon fill="#19486F" points="71.174,62.115 70.633,64.705 63.287,64.705 62.758,62.01 				"/>
			</g>
			<g>
				<path fill="#19486F" d="M72.719,61.316v2.48c0,0.064-0.002,0.127-0.012,0.184v-2.482C72.717,61.443,72.719,61.381,72.719,61.316
					"/>
				<path fill="#19486F" d="M72.707,61.498v2.482c-0.008,0.055-0.018,0.107-0.033,0.154v-2.48
					C72.689,61.605,72.699,61.555,72.707,61.498"/>
				<path fill="#19486F" d="M72.674,61.654v2.48c-0.016,0.049-0.037,0.092-0.057,0.133v-2.48
					C72.637,61.746,72.658,61.701,72.674,61.654"/>
				<path fill="#19486F" d="M72.617,61.787v2.48c-0.221,0.395-0.758,0.443-1.371,0.443c-0.201,0-0.406-0.006-0.613-0.006v-2.48
					c0.207,0,0.412,0.006,0.613,0.006C71.859,62.23,72.396,62.182,72.617,61.787"/>
			</g>
			<path fill="#19486F" d="M72.719,61.316v2.48c0,0.832-0.67,0.914-1.473,0.914c-0.201,0-0.406-0.006-0.613-0.006v-2.48
				c0.207,0,0.412,0.006,0.613,0.006C72.049,62.23,72.719,62.146,72.719,61.316z"/>
			<g>
				<path fill="#19486F" d="M63.287,62.225v2.48c-0.311,0-0.771,0.205-1.117,0.205c-0.109,0-0.211-0.02-0.285-0.076v-2.48
					c0.074,0.055,0.176,0.076,0.285,0.076C62.516,62.43,62.977,62.225,63.287,62.225"/>
			</g>
			<path fill="#19486F" d="M63.287,62.225v2.48c-0.311,0-0.771,0.205-1.117,0.205c-0.109,0-0.211-0.02-0.285-0.076v-2.48
				c0.074,0.055,0.176,0.076,0.285,0.076C62.516,62.43,62.977,62.225,63.287,62.225z"/>
			<g>
				<polygon fill="#19486F" points="58.92,57.02 58.92,59.5 55.609,66.1 55.609,63.619 				"/>
			</g>
			<g>
				<polygon fill="#19486F" points="62.509,61.531 61.885,64.834 57.182,68.887 57.182,66.406 				"/>
			</g>
			<g>
				<polygon fill="#19486F" points="47.287,66.971 47.287,69.449 39.555,61.904 39.133,58.572 				"/>
			</g>
			<g>
				<path fill="#19486F" d="M48.547,74.848v2.48c-1.057,0-1.26-0.818-1.26-1.867v-2.48C47.287,74.027,47.49,74.848,48.547,74.848"/>
			</g>
			<path fill="#19486F" d="M48.547,74.848v2.48c-1.057,0-1.26-0.818-1.26-1.867v-2.48C47.287,74.027,47.49,74.848,48.547,74.848z"/>
			<g>
				<path fill="#19486F" d="M57.182,72.98v2.48c0,0.223-0.012,0.434-0.041,0.631v-2.482C57.17,73.414,57.182,73.201,57.182,72.98"/>
				<path fill="#19486F" d="M57.141,73.609v2.482c-0.02,0.141-0.049,0.273-0.088,0.395v-2.48
					C57.092,73.883,57.121,73.75,57.141,73.609"/>
				<path fill="#19486F" d="M57.053,74.006v2.48c-0.029,0.1-0.07,0.193-0.117,0.277v-2.48
					C56.982,74.197,57.023,74.104,57.053,74.006"/>
				<path fill="#19486F" d="M56.936,74.283v2.48c-0.193,0.35-0.521,0.564-1.057,0.564v-2.48
					C56.414,74.848,56.742,74.633,56.936,74.283"/>
			</g>
			<path fill="#19486F" d="M57.182,72.98v2.48c0,1.049-0.26,1.867-1.303,1.867v-2.48C56.922,74.848,57.182,74.027,57.182,72.98z"/>
			<g>
				<polygon fill="#19486F" points="56.452,74.438 55.879,77.328 48.547,77.328 48.258,74.572 				"/>
			</g>
			<g>
				<path fill="#2E73B7" d="M70.633,43.988h-2.15v8.414h2.15c1.043,0,2.086,0.588,2.086,1.623v7.291c0,0.83-0.67,0.914-1.473,0.914
					c-0.201,0-0.406-0.006-0.613-0.006h-7.346c-0.311,0-0.771,0.205-1.117,0.205c-0.109,0-0.211-0.021-0.285-0.076l-4.703,4.053
					v6.574c0,1.047-0.26,1.867-1.303,1.867h-7.332c-1.057,0-1.26-0.82-1.26-1.867v-6.01l-7.732-7.547H26.348
					c-1.572,0-3.066-1.1-3.066-2.674V42.734c0-1.562,1.494-2.955,3.066-2.955h14.119l0.377,0.09l6.404-7.098
					c-0.17-0.283,0.039-0.615,0.039-0.973V24.51c0-1.037,0.203-2.955,1.26-2.955h7.332c1.043,0,1.303,1.918,1.303,2.955v6.432
					l4.328,2.699c0.348-0.436,1.172-0.869,1.777-0.869h7.346c1.043,0,2.086,1.15,2.086,2.199v7.277
					C72.719,43.297,71.676,43.988,70.633,43.988z M61.021,48.246l-2.785-5.602l-15.176,5.318v4.082l14.646,2.928L61.021,48.246
					 M48.65,32.771l-6.299,7.506c0.514,0.512,0.709,1.676,0.709,2.457v3.223l14.324-5.461l-3.477-7.725H48.65 M48.547,63.619h4.936
					l3.363-6.982l-13.785-2.674v2.787c0,1.074-0.479,1.945-1.355,2.43l5.297,5.334C47.348,64.029,47.902,63.619,48.547,63.619
					 M61.42,61.061v-3.453l-2.5-0.588l-3.311,6.6h0.27c0.543,0,1.043,0.332,1.391,0.689L61.42,61.061 M57.373,32.963
					c-0.322,0.396-0.799,0.664-1.352,0.703l3.311,6.637l2.088-0.729v-3.76L57.373,32.963 M65.658,52.402v-8.414h-0.359l-2.021,4.309
					l1.945,4.105H65.658 M61.42,54.025c0-0.971,0.746-1.764,1.699-1.865l-0.889-1.779l-2.447,4.977l1.637,0.332V54.025
					 M62.219,46.109l0.979-1.982c-1.004-0.062-1.777-0.869-1.777-1.879v-0.666l-1.238,0.422L62.219,46.109"/>
			</g>
		</g>
	</g>
	<g>
		<path fill="#FFFFFF" stroke="#19486F" stroke-miterlimit="10" d="M53.5,52.5c0,2.209-1.791,4-4,4h-18c-2.209,0-4-1.791-4-4v-6
			c0-2.209,1.791-4,4-4h18c2.209,0,4,1.791,4,4V52.5z"/>
		<text transform="matrix(1 0 0 1 31.8545 53.4502)" fill="#2E73B7" font-family="'HelveticaNeue-CondensedBold'" font-size="11">SSD</text>
	</g>
</g>
<g id="nyt_x5F_exporter_x5F_info" display="none">
</g>
</svg>
