<?xml version="1.0" encoding="utf-8"?>
<!-- Generator: Adobe Illustrator 16.0.0, SVG Export Plug-In . SVG Version: 6.00 Build 0)  -->
<svg version="1.2" baseProfile="tiny" xmlns="http://www.w3.org/2000/svg" xmlns:xlink="http://www.w3.org/1999/xlink" x="0px"
	 y="0px" width="100px" height="100px" viewBox="0 0 100 100" xml:space="preserve">
<g id="Layer_1">
	<g>
		<g>
			<g>
				<path fill="#19486F" d="M49.248,33.771v2.48c-0.051-0.082-0.066-0.168-0.066-0.256v-2.482
					C49.182,33.604,49.197,33.689,49.248,33.771"/>
			</g>
			<path fill="#19486F" d="M49.182,35.996v-2.482c0,0.09,0.016,0.176,0.066,0.258v2.48C49.197,36.17,49.182,36.084,49.182,35.996z"
				/>
			<g>
				<polygon fill="#19486F" points="56.133,33.572 55.908,36.252 50.65,36.252 50.445,33.635 				"/>
			</g>
			<g>
				<path fill="#19486F" d="M59.373,33.963v2.48c-0.322,0.396-0.799,0.666-1.352,0.703v-2.48
					C58.574,34.627,59.051,34.359,59.373,33.963"/>
			</g>
			<path fill="#19486F" d="M59.373,33.963v2.48c-0.322,0.396-0.799,0.666-1.352,0.703v-2.48
				C58.574,34.627,59.051,34.359,59.373,33.963z"/>
			<g>
				<polygon fill="#19486F" points="63.42,36.814 63.42,39.295 59.373,36.443 58.592,33.281 				"/>
			</g>
			<g>
				<polygon fill="#19486F" points="50.65,33.771 50.65,36.252 44.352,43.76 44.352,41.277 				"/>
			</g>
			<g>
				<polygon fill="#19486F" points="59.385,41.496 59.385,43.977 55.908,36.252 55.908,33.771 				"/>
			</g>
			<g>
				<polygon fill="#19486F" points="64.258,42.01 63.42,45.064 62.182,45.486 62.182,43.004 				"/>
			</g>
			<g>
				<polygon fill="#19486F" points="73.092,44.697 72.633,47.467 70.482,47.467 70.482,44.988 				"/>
			</g>
			<g>
				<rect x="67.299" y="44.988" fill="#19486F" width="0.359" height="2.479"/>
			</g>
			<g>
				<path fill="#19486F" d="M74.719,43.248v2.48c0,0.076-0.004,0.148-0.014,0.219v-2.48C74.715,43.395,74.719,43.322,74.719,43.248"
					/>
				<path fill="#19486F" d="M74.705,43.467v2.48c-0.012,0.082-0.031,0.164-0.055,0.242v-2.482
					C74.674,43.631,74.693,43.549,74.705,43.467"/>
				<path fill="#19486F" d="M74.65,43.707v2.482c-0.031,0.094-0.072,0.184-0.117,0.268v-2.48
					C74.578,43.891,74.619,43.803,74.65,43.707"/>
				<path fill="#19486F" d="M74.533,43.977v2.48c-0.348,0.627-1.125,1.01-1.9,1.01v-2.479
					C73.408,44.988,74.186,44.604,74.533,43.977"/>
			</g>
			<path fill="#19486F" d="M74.719,43.248v2.48c0,1.049-1.043,1.738-2.086,1.738v-2.479C73.676,44.988,74.719,44.297,74.719,43.248z
				"/>
			<g>
				<path fill="#19486F" d="M65.197,45.127v2.48c-1.004-0.062-1.777-0.869-1.777-1.879v-2.48
					C63.42,44.258,64.193,45.064,65.197,45.127"/>
			</g>
			<path fill="#19486F" d="M65.197,45.127v2.48c-1.004-0.062-1.777-0.869-1.777-1.879v-2.48
				C63.42,44.258,64.193,45.064,65.197,45.127z"/>
			<g>
				<polygon fill="#19486F" points="60.236,43.645 60.236,46.125 45.061,51.445 45.061,48.963 				"/>
			</g>
			<g>
				<polygon fill="#19486F" points="63.021,49.246 63.021,51.727 60.092,45.697 59.883,42.697 				"/>
			</g>
			<g>
				<polygon fill="#19486F" points="67.633,43.947 67.299,47.467 65.277,51.779 65.277,49.297 				"/>
			</g>
			<g>
				<polygon fill="#19486F" points="65.119,53.16 65.119,55.641 64.23,53.863 64.008,50.572 				"/>
			</g>
			<g>
				<polygon fill="#19486F" points="64.23,51.381 64.23,53.863 61.783,58.836 61.783,56.357 				"/>
			</g>
			<g>
				<polygon fill="#19486F" points="58.846,57.637 58.846,60.115 45.061,57.445 45.061,54.963 				"/>
			</g>
			<g>
				<polygon fill="#19486F" points="63.42,58.607 63.42,61.088 60.92,60.5 60.383,57.822 				"/>
			</g>
			<g>
				<path fill="#19486F" d="M45.061,57.75v2.482c0,0.164-0.014,0.324-0.033,0.48v-2.48C45.047,58.076,45.061,57.916,45.061,57.75"/>
				<path fill="#19486F" d="M45.027,58.232v2.48c-0.023,0.168-0.064,0.328-0.113,0.48v-2.48
					C44.963,58.561,45.004,58.398,45.027,58.232"/>
				<path fill="#19486F" d="M44.914,58.713v2.48c-0.051,0.164-0.119,0.32-0.197,0.467v-2.48
					C44.795,59.033,44.863,58.877,44.914,58.713"/>
				<path fill="#19486F" d="M44.717,59.18v2.48c-0.23,0.416-0.572,0.756-1.012,1.002V60.18
					C44.145,59.938,44.486,59.596,44.717,59.18"/>
			</g>
			<path fill="#19486F" d="M45.061,57.75v2.482c0,1.072-0.479,1.943-1.355,2.43V60.18C44.582,59.695,45.061,58.824,45.061,57.75z"/>
			<g>
				<path fill="#19486F" d="M28.348,60.424v2.48c-1.572,0-3.066-1.1-3.066-2.672V57.75C25.281,59.324,26.775,60.424,28.348,60.424"
					/>
			</g>
			<path fill="#19486F" d="M28.348,60.424v2.48c-1.572,0-3.066-1.1-3.066-2.672V57.75C25.281,59.324,26.775,60.424,28.348,60.424z"
				/>
			<g>
				<polygon fill="#19486F" points="41.555,60.424 41.555,62.904 28.348,62.904 27.82,59.947 				"/>
			</g>
			<g>
				<polygon fill="#19486F" points="73.174,63.115 72.633,65.705 65.287,65.705 64.758,63.01 				"/>
			</g>
			<g>
				<path fill="#19486F" d="M74.719,62.316v2.48c0,0.064-0.002,0.127-0.012,0.184v-2.482C74.717,62.443,74.719,62.381,74.719,62.316
					"/>
				<path fill="#19486F" d="M74.707,62.498v2.482c-0.008,0.055-0.018,0.107-0.033,0.154v-2.48
					C74.689,62.605,74.699,62.555,74.707,62.498"/>
				<path fill="#19486F" d="M74.674,62.654v2.48c-0.016,0.049-0.037,0.092-0.057,0.133v-2.48
					C74.637,62.746,74.658,62.701,74.674,62.654"/>
				<path fill="#19486F" d="M74.617,62.787v2.48c-0.221,0.395-0.758,0.443-1.371,0.443c-0.201,0-0.406-0.006-0.613-0.006v-2.48
					c0.207,0,0.412,0.006,0.613,0.006C73.859,63.23,74.396,63.182,74.617,62.787"/>
			</g>
			<path fill="#19486F" d="M74.719,62.316v2.48c0,0.832-0.67,0.914-1.473,0.914c-0.201,0-0.406-0.006-0.613-0.006v-2.48
				c0.207,0,0.412,0.006,0.613,0.006C74.049,63.23,74.719,63.146,74.719,62.316z"/>
			<g>
				<path fill="#19486F" d="M65.287,63.225v2.48c-0.311,0-0.771,0.205-1.117,0.205c-0.109,0-0.211-0.02-0.285-0.076v-2.48
					c0.074,0.055,0.176,0.076,0.285,0.076C64.516,63.43,64.977,63.225,65.287,63.225"/>
			</g>
			<path fill="#19486F" d="M65.287,63.225v2.48c-0.311,0-0.771,0.205-1.117,0.205c-0.109,0-0.211-0.02-0.285-0.076v-2.48
				c0.074,0.055,0.176,0.076,0.285,0.076C64.516,63.43,64.977,63.225,65.287,63.225z"/>
			<g>
				<polygon fill="#19486F" points="60.92,58.02 60.92,60.5 57.609,67.1 57.609,64.619 				"/>
			</g>
			<g>
				<polygon fill="#19486F" points="64.509,62.531 63.885,65.834 59.182,69.887 59.182,67.406 				"/>
			</g>
			<g>
				<polygon fill="#19486F" points="49.287,67.971 49.287,70.449 41.555,62.904 41.133,59.572 				"/>
			</g>
			<g>
				<path fill="#19486F" d="M50.547,75.848v2.48c-1.057,0-1.26-0.818-1.26-1.867v-2.48C49.287,75.027,49.49,75.848,50.547,75.848"/>
			</g>
			<path fill="#19486F" d="M50.547,75.848v2.48c-1.057,0-1.26-0.818-1.26-1.867v-2.48C49.287,75.027,49.49,75.848,50.547,75.848z"/>
			<g>
				<path fill="#19486F" d="M59.182,73.98v2.48c0,0.223-0.012,0.434-0.041,0.631v-2.482C59.17,74.414,59.182,74.201,59.182,73.98"/>
				<path fill="#19486F" d="M59.141,74.609v2.482c-0.02,0.141-0.049,0.273-0.088,0.395v-2.48
					C59.092,74.883,59.121,74.75,59.141,74.609"/>
				<path fill="#19486F" d="M59.053,75.006v2.48c-0.029,0.1-0.07,0.193-0.117,0.277v-2.48
					C58.982,75.197,59.023,75.104,59.053,75.006"/>
				<path fill="#19486F" d="M58.936,75.283v2.48c-0.193,0.35-0.521,0.564-1.057,0.564v-2.48
					C58.414,75.848,58.742,75.633,58.936,75.283"/>
			</g>
			<path fill="#19486F" d="M59.182,73.98v2.48c0,1.049-0.26,1.867-1.303,1.867v-2.48C58.922,75.848,59.182,75.027,59.182,73.98z"/>
			<g>
				<polygon fill="#19486F" points="58.452,75.438 57.879,78.328 50.547,78.328 50.258,75.572 				"/>
			</g>
			<g>
				<path fill="#2E73B7" d="M72.633,44.988h-2.15v8.414h2.15c1.043,0,2.086,0.588,2.086,1.623v7.291c0,0.83-0.67,0.914-1.473,0.914
					c-0.201,0-0.406-0.006-0.613-0.006h-7.346c-0.311,0-0.771,0.205-1.117,0.205c-0.109,0-0.211-0.021-0.285-0.076l-4.703,4.053
					v6.574c0,1.047-0.26,1.867-1.303,1.867h-7.332c-1.057,0-1.26-0.82-1.26-1.867v-6.01l-7.732-7.547H28.348
					c-1.572,0-3.066-1.1-3.066-2.674V43.734c0-1.562,1.494-2.955,3.066-2.955h14.119l0.377,0.09l6.404-7.098
					c-0.17-0.283,0.039-0.615,0.039-0.973V25.51c0-1.037,0.203-2.955,1.26-2.955h7.332c1.043,0,1.303,1.918,1.303,2.955v6.432
					l4.328,2.699c0.348-0.436,1.172-0.869,1.777-0.869h7.346c1.043,0,2.086,1.15,2.086,2.199v7.277
					C74.719,44.297,73.676,44.988,72.633,44.988z M63.021,49.246l-2.785-5.602l-15.176,5.318v4.082l14.646,2.928L63.021,49.246
					 M50.65,33.771l-6.299,7.506c0.514,0.512,0.709,1.676,0.709,2.457v3.223l14.324-5.461l-3.477-7.725H50.65 M50.547,64.619h4.936
					l3.363-6.982l-13.785-2.674v2.787c0,1.074-0.479,1.945-1.355,2.43l5.297,5.334C49.348,65.029,49.902,64.619,50.547,64.619
					 M63.42,62.061v-3.453l-2.5-0.588l-3.311,6.6h0.27c0.543,0,1.043,0.332,1.391,0.689L63.42,62.061 M59.373,33.963
					c-0.322,0.396-0.799,0.664-1.352,0.703l3.311,6.637l2.088-0.729v-3.76L59.373,33.963 M67.658,53.402v-8.414h-0.359l-2.021,4.309
					l1.945,4.105H67.658 M63.42,55.025c0-0.971,0.746-1.764,1.699-1.865l-0.889-1.779l-2.447,4.977l1.637,0.332V55.025
					 M64.219,47.109l0.979-1.982c-1.004-0.062-1.777-0.869-1.777-1.879v-0.666l-1.238,0.422L64.219,47.109"/>
			</g>
		</g>
	</g>
	<g>
		<path fill="#FFFFFF" stroke="#19486F" stroke-miterlimit="10" d="M55.5,53.5c0,2.209-1.791,4-4,4h-18c-2.209,0-4-1.791-4-4v-6
			c0-2.209,1.791-4,4-4h18c2.209,0,4,1.791,4,4V53.5z"/>
		<text transform="matrix(1 0 0 1 32.8545 54.4502)" fill="#2E73B7" font-family="'HelveticaNeue-CondensedBold'" font-size="11">DW2</text>
	</g>
</g>
<g id="nyt_x5F_exporter_x5F_info" display="none">
</g>
</svg>
