<?xml version="1.0" encoding="utf-8"?>
<!-- Generator: Adobe Illustrator 16.0.0, SVG Export Plug-In . SVG Version: 6.00 Build 0)  -->
<svg version="1.2" baseProfile="tiny" xmlns="http://www.w3.org/2000/svg" xmlns:xlink="http://www.w3.org/1999/xlink" x="0px"
	 y="0px" width="100px" height="100px" viewBox="0 0 100 100" xml:space="preserve">
<g id="Layer_1">
	<g>
		<g>
			<g>
				<path fill="#19486F" d="M78.785,64.656v2.615c0,0.363-0.025,0.721-0.074,1.07v-2.613C78.76,65.377,78.785,65.021,78.785,64.656"
					/>
				<path fill="#19486F" d="M78.711,65.729v2.613c-0.062,0.414-0.156,0.818-0.279,1.207v-2.613
					C78.555,66.545,78.648,66.141,78.711,65.729"/>
				<path fill="#19486F" d="M78.432,66.936v2.613c-0.146,0.459-0.34,0.9-0.57,1.316v-2.613
					C78.092,67.834,78.285,67.395,78.432,66.936"/>
			</g>
			<path fill="#19486F" d="M78.785,64.656v2.615c0,4.137-3.381,7.494-7.549,7.494V72.15C75.404,72.15,78.785,68.793,78.785,64.656z"
				/>
			<g>
				<polygon fill="#19486F" points="72.375,71.35 71.236,74.766 33.615,74.766 33.615,72.15 				"/>
			</g>
			<path fill="#19486F" d="M33.615,72.15v2.615c-4.166,0-7.537-3.357-7.537-7.494v-2.615C26.078,68.793,29.449,72.15,33.615,72.15z"
				/>
			<g>
				<path fill="#2E73B7" d="M71.236,18.781c4.168,0,7.549,3.342,7.549,7.48v38.395c0,4.137-3.381,7.494-7.549,7.494H33.615
					c-4.166,0-7.537-3.357-7.537-7.494V26.262c0-4.139,3.371-7.48,7.537-7.48H71.236z"/>
			</g>
		</g>
	</g>
	<g>
	</g>
	<text transform="matrix(1 0 0 1 33.3779 34.1777)" fill="#FFFFFF" font-family="'HelveticaNeue-CondensedBold'" font-size="14">MySQL</text>
</g>
<g id="nyt_x5F_exporter_x5F_info" display="none">
</g>
</svg>
