<?xml version="1.0" encoding="utf-8"?>
<!-- Generator: Adobe Illustrator 16.0.0, SVG Export Plug-In . SVG Version: 6.00 Build 0)  -->
<svg version="1.2" baseProfile="tiny" xmlns="http://www.w3.org/2000/svg" xmlns:xlink="http://www.w3.org/1999/xlink" x="0px"
	 y="0px" width="100px" height="100px" viewBox="0 0 100 100" xml:space="preserve">
<g id="Layer_1">
	<path fill="#19486F" d="M26.125,71c0,0-0.791,6,3.959,6S75,77,75,77s3.654-0.824,3.952-5.412L26.125,71z"/>
	<path fill="#2E73B7" d="M79,71c0,2.209-1.791,4-4,4H30c-2.209,0-4-1.791-4-4V26c0-2.209,1.791-4,4-4h45c2.209,0,4,1.791,4,4V71z"/>
	<g>
		<g>
			<path fill="#FFFFFF" stroke="#19486F" stroke-miterlimit="10" d="M75.5,66.5c0,2.209-1.791,4-4,4h-19c-2.209,0-4-1.791-4-4v-6
				c0-2.209,1.791-4,4-4h19c2.209,0,4,1.791,4,4V66.5z"/>
		</g>
		<text transform="matrix(1 0 0 1 51.8105 67.6904)" fill="#2E73B7" font-family="'HelveticaNeue-CondensedBold'" font-size="11">PIOP</text>
	</g>
</g>
<g id="nyt_x5F_exporter_x5F_info" display="none">
</g>
</svg>
