<?xml version="1.0" encoding="utf-8"?>
<!-- Generator: Adobe Illustrator 16.0.0, SVG Export Plug-In . SVG Version: 6.00 Build 0)  -->
<svg version="1.2" baseProfile="tiny" xmlns="http://www.w3.org/2000/svg" xmlns:xlink="http://www.w3.org/1999/xlink" x="0px"
	 y="0px" width="100px" height="100px" viewBox="0 0 100 100" xml:space="preserve">
<g id="Layer_1">
	<g>
		<polygon fill="#5294CF" points="69.614,80.233 58.081,86 58.081,14 69.614,19.766 		"/>
		<polygon fill="#205B98" points="30.386,80.233 41.918,86 41.918,14 30.386,19.766 		"/>
		<rect x="41.918" y="14" fill="#2D72B8" width="16.163" height="72"/>
	</g>
</g>
<g id="nyt_x5F_exporter_x5F_info" display="none">
	<text transform="matrix(1 0 0 1 -773 0)" display="inline" font-family="'MyriadPro-Regular'" font-size="12">&lt;</text>
	<text transform="matrix(1 0 0 1 -765.8481 0)" display="inline" font-family="'MyriadPro-Regular'" font-size="12">n</text>
	<text transform="matrix(1 0 0 1 -759.3442 0)" display="inline" font-family="'MyriadPro-Regular'" font-size="12">y</text>
	<text transform="matrix(1 0 0 1 -753.6924 0)" display="inline" font-family="'MyriadPro-Regular'" font-size="12">t</text>
	<text transform="matrix(1 0 0 1 -749.7202 0)" display="inline" font-family="'MyriadPro-Regular'" font-size="12">_</text>
	<text transform="matrix(1 0 0 1 -743.7202 0)" display="inline" font-family="'MyriadPro-Regular'" font-size="12">p</text>
	<text transform="matrix(1 0 0 1 -736.8926 0)" display="inline" font-family="'MyriadPro-Regular'" font-size="12">r</text>
	<text transform="matrix(1 0 0 1 -733.0889 0)" display="inline" font-family="'MyriadPro-Regular'" font-size="12">e</text>
	<text transform="matrix(1 0 0 1 -727.0771 0)" display="inline" font-family="'MyriadPro-Regular'" font-size="12">f</text>
	<text transform="matrix(1 0 0 1 -723.6812 0)" display="inline" font-family="'MyriadPro-Regular'" font-size="12">s</text>
	<text transform="matrix(1 0 0 1 -718.9287 0)" display="inline" font-family="'MyriadPro-Regular'" font-size="12">&gt;</text>
	<text transform="matrix(1 0 0 1 -773 14.3999)" display="inline" font-family="'MyriadPro-Regular'" font-size="12"> </text>
	<text transform="matrix(1 0 0 1 -770.4561 14.3999)" display="inline" font-family="'MyriadPro-Regular'" font-size="12"> </text>
	<text transform="matrix(1 0 0 1 -767.9121 14.3999)" display="inline" font-family="'MyriadPro-Regular'" font-size="12">&lt;</text>
	<text transform="matrix(1 0 0 1 -760.7603 14.3999)" display="inline" font-family="'MyriadPro-Regular'" font-size="12">n</text>
	<text transform="matrix(1 0 0 1 -754.2563 14.3999)" display="inline" font-family="'MyriadPro-Regular'" font-size="12">y</text>
	<text transform="matrix(1 0 0 1 -748.6045 14.3999)" display="inline" font-family="'MyriadPro-Regular'" font-size="12">t</text>
	<text transform="matrix(1 0 0 1 -744.6323 14.3999)" display="inline" font-family="'MyriadPro-Regular'" font-size="12">_</text>
	<text transform="matrix(1 0 0 1 -738.6323 14.3999)" display="inline" font-family="'MyriadPro-Regular'" font-size="12">p</text>
	<text transform="matrix(1 0 0 1 -731.8047 14.3999)" display="inline" font-family="'MyriadPro-Regular'" font-size="12">r</text>
	<text transform="matrix(1 0 0 1 -728.001 14.3999)" display="inline" font-family="'MyriadPro-Regular'" font-size="12">e</text>
	<text transform="matrix(1 0 0 1 -721.9883 14.3999)" display="inline" font-family="'MyriadPro-Regular'" font-size="12">f</text>
	<text transform="matrix(1 0 0 1 -715.7119 14.3999)" display="inline" font-family="'MyriadPro-Regular'" font-size="12">i</text>
	<text transform="matrix(1 0 0 1 -710.1562 14.3999)" display="inline" font-family="'MyriadPro-Regular'" font-size="12">x</text>
	<text transform="matrix(1 0 0 1 -703.0039 14.3999)" display="inline" font-family="'MyriadPro-Regular'" font-size="12">&gt;</text>
	<text transform="matrix(1 0 0 1 -695.8516 14.3999)" display="inline" font-family="'MyriadPro-Regular'" font-size="12">&lt;</text>
	<text transform="matrix(1 0 0 1 0 -8141)" display="inline" font-family="'MyriadPro-Regular'" font-size="12">/</text>
	<text transform="matrix(1 0 0 1 -691.7354 14.3999)" display="inline" font-family="'MyriadPro-Regular'" font-size="12">n</text>
	<text transform="matrix(1 0 0 1 -685.2314 14.3999)" display="inline" font-family="'MyriadPro-Regular'" font-size="12">y</text>
	<text transform="matrix(1 0 0 1 -679.5791 14.3999)" display="inline" font-family="'MyriadPro-Regular'" font-size="12">t</text>
	<text transform="matrix(1 0 0 1 -675.6074 14.3999)" display="inline" font-family="'MyriadPro-Regular'" font-size="12">_</text>
	<text transform="matrix(1 0 0 1 -669.6074 14.3999)" display="inline" font-family="'MyriadPro-Regular'" font-size="12">p</text>
	<text transform="matrix(1 0 0 1 -662.7793 14.3999)" display="inline" font-family="'MyriadPro-Regular'" font-size="12">r</text>
	<text transform="matrix(1 0 0 1 -658.9756 14.3999)" display="inline" font-family="'MyriadPro-Regular'" font-size="12">e</text>
	<text transform="matrix(1 0 0 1 -652.9639 14.3999)" display="inline" font-family="'MyriadPro-Regular'" font-size="12">f</text>
	<text transform="matrix(1 0 0 1 -646.6875 14.3999)" display="inline" font-family="'MyriadPro-Regular'" font-size="12">i</text>
	<text transform="matrix(1 0 0 1 -641.1318 14.3999)" display="inline" font-family="'MyriadPro-Regular'" font-size="12">x</text>
	<text transform="matrix(1 0 0 1 -8914 -8141)" display="inline" font-family="'MyriadPro-Regular'" font-size="12">&gt;</text>
	<text transform="matrix(1 0 0 1 -773 28.7998)" display="inline" font-family="'MyriadPro-Regular'" font-size="12"> </text>
	<text transform="matrix(1 0 0 1 -770.4561 28.7998)" display="inline" font-family="'MyriadPro-Regular'" font-size="12"> </text>
	<text transform="matrix(1 0 0 1 -767.9121 28.7998)" display="inline" font-family="'MyriadPro-Regular'" font-size="12">&lt;</text>
	<text transform="matrix(1 0 0 1 -760.7603 28.7998)" display="inline" font-family="'MyriadPro-Regular'" font-size="12">n</text>
	<text transform="matrix(1 0 0 1 -754.2563 28.7998)" display="inline" font-family="'MyriadPro-Regular'" font-size="12">y</text>
	<text transform="matrix(1 0 0 1 -748.6045 28.7998)" display="inline" font-family="'MyriadPro-Regular'" font-size="12">t</text>
	<text transform="matrix(1 0 0 1 -744.6323 28.7998)" display="inline" font-family="'MyriadPro-Regular'" font-size="12">_</text>
	<text transform="matrix(1 0 0 1 -738.6323 28.7998)" display="inline" font-family="'MyriadPro-Regular'" font-size="12">s</text>
	<text transform="matrix(1 0 0 1 -733.8804 28.7998)" display="inline" font-family="'MyriadPro-Regular'" font-size="12">u</text>
	<text transform="matrix(1 0 0 1 -727.2686 28.7998)" display="inline" font-family="'MyriadPro-Regular'" font-size="12">f</text>
	<text transform="matrix(1 0 0 1 -717.4893 28.7998)" display="inline" font-family="'MyriadPro-Regular'" font-size="12">f</text>
	<text transform="matrix(1 0 0 1 -711.9336 28.7998)" display="inline" font-family="'MyriadPro-Regular'" font-size="12">i</text>
	<text transform="matrix(1 0 0 1 -704.7812 28.7998)" display="inline" font-family="'MyriadPro-Regular'" font-size="12">x</text>
	<text transform="matrix(1 0 0 1 -697.6289 28.7998)" display="inline" font-family="'MyriadPro-Regular'" font-size="12">&gt;</text>
	<text transform="matrix(1 0 0 1 71712040 -8141)" display="inline" font-family="'MyriadPro-Regular'" font-size="12">&lt;</text>
	<text transform="matrix(1 0 0 1 71791528 -8141)" display="inline" font-family="'MyriadPro-Regular'" font-size="12">/</text>
	<text transform="matrix(1 0 0 1 -693.5127 28.7998)" display="inline" font-family="'MyriadPro-Regular'" font-size="12">n</text>
	<text transform="matrix(1 0 0 1 -687.0078 28.7998)" display="inline" font-family="'MyriadPro-Regular'" font-size="12">y</text>
	<text transform="matrix(1 0 0 1 -681.3555 28.7998)" display="inline" font-family="'MyriadPro-Regular'" font-size="12">t</text>
	<text transform="matrix(1 0 0 1 -677.3838 28.7998)" display="inline" font-family="'MyriadPro-Regular'" font-size="12">_</text>
	<text transform="matrix(1 0 0 1 -671.3838 28.7998)" display="inline" font-family="'MyriadPro-Regular'" font-size="12">s</text>
	<text transform="matrix(1 0 0 1 -666.6318 28.7998)" display="inline" font-family="'MyriadPro-Regular'" font-size="12">u</text>
	<text transform="matrix(1 0 0 1 -660.0195 28.7998)" display="inline" font-family="'MyriadPro-Regular'" font-size="12">f</text>
	<text transform="matrix(1 0 0 1 -650.2393 28.7998)" display="inline" font-family="'MyriadPro-Regular'" font-size="12">f</text>
	<text transform="matrix(1 0 0 1 -644.6836 28.7998)" display="inline" font-family="'MyriadPro-Regular'" font-size="12">i</text>
	<text transform="matrix(1 0 0 1 -704.7812 28.7998)" display="inline" font-family="'MyriadPro-Regular'" font-size="12">x</text>
	<text transform="matrix(1 0 0 1 -697.6289 28.7998)" display="inline" font-family="'MyriadPro-Regular'" font-size="12">&gt;</text>
	<text transform="matrix(1 0 0 1 -773 43.2002)" display="inline" font-family="'MyriadPro-Regular'" font-size="12"> </text>
	<text transform="matrix(1 0 0 1 -770.4561 43.2002)" display="inline" font-family="'MyriadPro-Regular'" font-size="12"> </text>
	<text transform="matrix(1 0 0 1 -767.9121 43.2002)" display="inline" font-family="'MyriadPro-Regular'" font-size="12">&lt;</text>
	<text transform="matrix(1 0 0 1 -760.7603 43.2002)" display="inline" font-family="'MyriadPro-Regular'" font-size="12">n</text>
	<text transform="matrix(1 0 0 1 -754.2563 43.2002)" display="inline" font-family="'MyriadPro-Regular'" font-size="12">y</text>
	<text transform="matrix(1 0 0 1 -748.6045 43.2002)" display="inline" font-family="'MyriadPro-Regular'" font-size="12">t</text>
	<text transform="matrix(1 0 0 1 -744.6323 43.2002)" display="inline" font-family="'MyriadPro-Regular'" font-size="12">_</text>
	<text transform="matrix(1 0 0 1 -738.6323 43.2002)" display="inline" font-family="'MyriadPro-Regular'" font-size="12">b</text>
	<text transform="matrix(1 0 0 1 -731.8047 43.2002)" display="inline" font-family="'MyriadPro-Regular'" font-size="12">a</text>
	<text transform="matrix(1 0 0 1 -726.021 43.2002)" display="inline" font-family="'MyriadPro-Regular'" font-size="12">s</text>
	<text transform="matrix(1 0 0 1 -721.2695 43.2002)" display="inline" font-family="'MyriadPro-Regular'" font-size="12">e</text>
	<text transform="matrix(1 0 0 1 -715.2578 43.2002)" display="inline" font-family="'MyriadPro-Regular'" font-size="12">_</text>
	<text transform="matrix(1 0 0 1 -709.2578 43.2002)" display="inline" font-family="'MyriadPro-Regular'" font-size="12">p</text>
	<text transform="matrix(1 0 0 1 -702.4297 43.2002)" display="inline" font-family="'MyriadPro-Regular'" font-size="12">a</text>
	<text transform="matrix(1 0 0 1 -696.6934 43.2002)" display="inline" font-family="'MyriadPro-Regular'" font-size="12">t</text>
	<text transform="matrix(1 0 0 1 -692.7217 43.2002)" display="inline" font-family="'MyriadPro-Regular'" font-size="12">h</text>
	<text transform="matrix(1 0 0 1 -686.0615 43.2002)" display="inline" font-family="'MyriadPro-Regular'" font-size="12">&gt;</text>
	<text transform="matrix(1 0 0 1 -678.9092 43.2002)" display="inline" font-family="'MyriadPro-Regular'" font-size="12">~</text>
	<text transform="matrix(1 0 0 1 -671.7568 43.2002)" display="inline" font-family="'MyriadPro-Regular'" font-size="12">/</text>
	<text transform="matrix(1 0 0 1 -667.6406 43.2002)" display="inline" font-family="'MyriadPro-Regular'" font-size="12">D</text>
	<text transform="matrix(1 0 0 1 -659.6006 43.2002)" display="inline" font-family="'MyriadPro-Regular'" font-size="12">e</text>
	<text transform="matrix(1 0 0 1 -653.5889 43.2002)" display="inline" font-family="'MyriadPro-Regular'" font-size="12">s</text>
	<text transform="matrix(1 0 0 1 -648.8369 43.2002)" display="inline" font-family="'MyriadPro-Regular'" font-size="12">k</text>
	<text transform="matrix(1 0 0 1 -643.209 43.2002)" display="inline" font-family="'MyriadPro-Regular'" font-size="12">t</text>
	<text transform="matrix(1 0 0 1 -639.3086 43.2002)" display="inline" font-family="'MyriadPro-Regular'" font-size="12">o</text>
	<text transform="matrix(1 0 0 1 -632.7207 43.2002)" display="inline" font-family="'MyriadPro-Regular'" font-size="12">p</text>
	<text transform="matrix(1 0 0 1 -625.8926 43.2002)" display="inline" font-family="'MyriadPro-Regular'" font-size="12">/</text>
	<text transform="matrix(1 0 0 1 -621.7764 43.2002)" display="inline" font-family="'MyriadPro-Regular'" font-size="12">w</text>
	<text transform="matrix(1 0 0 1 -612.9443 43.2002)" display="inline" font-family="'MyriadPro-Regular'" font-size="12">i</text>
	<text transform="matrix(1 0 0 1 -610.1367 43.2002)" display="inline" font-family="'MyriadPro-Regular'" font-size="12">p</text>
	<text transform="matrix(1 0 0 1 -603.3086 43.2002)" display="inline" font-family="'MyriadPro-Regular'" font-size="12">/</text>
	<text transform="matrix(1 0 0 1 -599.1924 43.2002)" display="inline" font-family="'MyriadPro-Regular'" font-size="12">A</text>
	<text transform="matrix(1 0 0 1 -591.8848 43.2002)" display="inline" font-family="'MyriadPro-Regular'" font-size="12">r</text>
	<text transform="matrix(1 0 0 1 -588.0811 43.2002)" display="inline" font-family="'MyriadPro-Regular'" font-size="12">c</text>
	<text transform="matrix(1 0 0 1 -582.7051 43.2002)" display="inline" font-family="'MyriadPro-Regular'" font-size="12">h</text>
	<text transform="matrix(1 0 0 1 -576.0449 43.2002)" display="inline" font-family="'MyriadPro-Regular'" font-size="12">i</text>
	<text transform="matrix(1 0 0 1 -573.2373 43.2002)" display="inline" font-family="'MyriadPro-Regular'" font-size="12">t</text>
	<text transform="matrix(1 0 0 1 -569.3379 43.2002)" display="inline" font-family="'MyriadPro-Regular'" font-size="12">e</text>
	<text transform="matrix(1 0 0 1 -563.3262 43.2002)" display="inline" font-family="'MyriadPro-Regular'" font-size="12">c</text>
	<text transform="matrix(1 0 0 1 -557.7939 43.2002)" display="inline" font-family="'MyriadPro-Regular'" font-size="12">t</text>
	<text transform="matrix(1 0 0 1 -553.8223 43.2002)" display="inline" font-family="'MyriadPro-Regular'" font-size="12">u</text>
	<text transform="matrix(1 0 0 1 -547.21 43.2002)" display="inline" font-family="'MyriadPro-Regular'" font-size="12">r</text>
	<text transform="matrix(1 0 0 1 -543.4062 43.2002)" display="inline" font-family="'MyriadPro-Regular'" font-size="12">e</text>
	<text transform="matrix(1 0 0 1 -537.3945 43.2002)" display="inline" font-family="'MyriadPro-Regular'" font-size="12">%</text>
	<text transform="matrix(1 0 0 1 -527.8906 43.2002)" display="inline" font-family="'MyriadPro-Regular'" font-size="12">2</text>
	<text transform="matrix(1 0 0 1 -521.7344 43.2002)" display="inline" font-family="'MyriadPro-Regular'" font-size="12">0</text>
	<text transform="matrix(1 0 0 1 -515.5781 43.2002)" display="inline" font-family="'MyriadPro-Regular'" font-size="12">I</text>
	<text transform="matrix(1 0 0 1 -512.71 43.2002)" display="inline" font-family="'MyriadPro-Regular'" font-size="12">c</text>
	<text transform="matrix(1 0 0 1 -507.4053 43.2002)" display="inline" font-family="'MyriadPro-Regular'" font-size="12">o</text>
	<text transform="matrix(1 0 0 1 -500.8174 43.2002)" display="inline" font-family="'MyriadPro-Regular'" font-size="12">n</text>
	<text transform="matrix(1 0 0 1 -494.1572 43.2002)" display="inline" font-family="'MyriadPro-Regular'" font-size="12">s</text>
	<text transform="matrix(1 0 0 1 -489.4053 43.2002)" display="inline" font-family="'MyriadPro-Regular'" font-size="12">%</text>
	<text transform="matrix(1 0 0 1 -479.9014 43.2002)" display="inline" font-family="'MyriadPro-Regular'" font-size="12">2</text>
	<text transform="matrix(1 0 0 1 -473.7451 43.2002)" display="inline" font-family="'MyriadPro-Regular'" font-size="12">0</text>
	<text transform="matrix(1 0 0 1 -467.5889 43.2002)" display="inline" font-family="'MyriadPro-Regular'" font-size="12">-</text>
	<text transform="matrix(1 0 0 1 -463.9053 43.2002)" display="inline" font-family="'MyriadPro-Regular'" font-size="12">%</text>
	<text transform="matrix(1 0 0 1 -454.4014 43.2002)" display="inline" font-family="'MyriadPro-Regular'" font-size="12">2</text>
	<text transform="matrix(1 0 0 1 -448.2451 43.2002)" display="inline" font-family="'MyriadPro-Regular'" font-size="12">0</text>
	<text transform="matrix(1 0 0 1 -442.0889 43.2002)" display="inline" font-family="'MyriadPro-Regular'" font-size="12">U</text>
	<text transform="matrix(1 0 0 1 -434.3252 43.2002)" display="inline" font-family="'MyriadPro-Regular'" font-size="12">p</text>
	<text transform="matrix(1 0 0 1 -427.4971 43.2002)" display="inline" font-family="'MyriadPro-Regular'" font-size="12">d</text>
	<text transform="matrix(1 0 0 1 -420.7295 43.2002)" display="inline" font-family="'MyriadPro-Regular'" font-size="12">a</text>
	<text transform="matrix(1 0 0 1 -414.9932 43.2002)" display="inline" font-family="'MyriadPro-Regular'" font-size="12">t</text>
	<text transform="matrix(1 0 0 1 -411.0938 43.2002)" display="inline" font-family="'MyriadPro-Regular'" font-size="12">e</text>
	<text transform="matrix(1 0 0 1 -405.082 43.2002)" display="inline" font-family="'MyriadPro-Regular'" font-size="12">%</text>
	<text transform="matrix(1 0 0 1 -395.5781 43.2002)" display="inline" font-family="'MyriadPro-Regular'" font-size="12">2</text>
	<text transform="matrix(1 0 0 1 -389.4219 43.2002)" display="inline" font-family="'MyriadPro-Regular'" font-size="12">0</text>
	<text transform="matrix(1 0 0 1 -383.2656 43.2002)" display="inline" font-family="'MyriadPro-Regular'" font-size="12">a</text>
	<text transform="matrix(1 0 0 1 -377.4814 43.2002)" display="inline" font-family="'MyriadPro-Regular'" font-size="12">l</text>
	<text transform="matrix(1 0 0 1 -374.6494 43.2002)" display="inline" font-family="'MyriadPro-Regular'" font-size="12">l</text>
	<text transform="matrix(1 0 0 1 -371.8174 43.2002)" display="inline" font-family="'MyriadPro-Regular'" font-size="12">%</text>
	<text transform="matrix(1 0 0 1 -362.3135 43.2002)" display="inline" font-family="'MyriadPro-Regular'" font-size="12">2</text>
	<text transform="matrix(1 0 0 1 -356.1572 43.2002)" display="inline" font-family="'MyriadPro-Regular'" font-size="12">0</text>
	<text transform="matrix(1 0 0 1 -350.001 43.2002)" display="inline" font-family="'MyriadPro-Regular'" font-size="12">c</text>
	<text transform="matrix(1 0 0 1 -344.625 43.2002)" display="inline" font-family="'MyriadPro-Regular'" font-size="12">u</text>
	<text transform="matrix(1 0 0 1 -338.0127 43.2002)" display="inline" font-family="'MyriadPro-Regular'" font-size="12">s</text>
	<text transform="matrix(1 0 0 1 -333.2607 43.2002)" display="inline" font-family="'MyriadPro-Regular'" font-size="12">t</text>
	<text transform="matrix(1 0 0 1 -329.3613 43.2002)" display="inline" font-family="'MyriadPro-Regular'" font-size="12">o</text>
	<text transform="matrix(1 0 0 1 -322.7734 43.2002)" display="inline" font-family="'MyriadPro-Regular'" font-size="12">m</text>
	<text transform="matrix(1 0 0 1 -312.7656 43.2002)" display="inline" font-family="'MyriadPro-Regular'" font-size="12">e</text>
	<text transform="matrix(1 0 0 1 -306.7539 43.2002)" display="inline" font-family="'MyriadPro-Regular'" font-size="12">r</text>
	<text transform="matrix(1 0 0 1 -302.8896 43.2002)" display="inline" font-family="'MyriadPro-Regular'" font-size="12">-</text>
	<text transform="matrix(1 0 0 1 -299.2061 43.2002)" display="inline" font-family="'MyriadPro-Regular'" font-size="12">f</text>
	<text transform="matrix(1 0 0 1 -295.7021 43.2002)" display="inline" font-family="'MyriadPro-Regular'" font-size="12">a</text>
	<text transform="matrix(1 0 0 1 -289.918 43.2002)" display="inline" font-family="'MyriadPro-Regular'" font-size="12">c</text>
	<text transform="matrix(1 0 0 1 -284.542 43.2002)" display="inline" font-family="'MyriadPro-Regular'" font-size="12">i</text>
	<text transform="matrix(1 0 0 1 -281.7344 43.2002)" display="inline" font-family="'MyriadPro-Regular'" font-size="12">n</text>
	<text transform="matrix(1 0 0 1 -275.0742 43.2002)" display="inline" font-family="'MyriadPro-Regular'" font-size="12">g</text>
	<text transform="matrix(1 0 0 1 -268.3662 43.2002)" display="inline" font-family="'MyriadPro-Regular'" font-size="12">%</text>
	<text transform="matrix(1 0 0 1 -258.8623 43.2002)" display="inline" font-family="'MyriadPro-Regular'" font-size="12">2</text>
	<text transform="matrix(1 0 0 1 -252.7061 43.2002)" display="inline" font-family="'MyriadPro-Regular'" font-size="12">0</text>
	<text transform="matrix(1 0 0 1 -246.5498 43.2002)" display="inline" font-family="'MyriadPro-Regular'" font-size="12">f</text>
	<text transform="matrix(1 0 0 1 -240.2734 43.2002)" display="inline" font-family="'MyriadPro-Regular'" font-size="12">i</text>
	<text transform="matrix(1 0 0 1 -237.4414 43.2002)" display="inline" font-family="'MyriadPro-Regular'" font-size="12">l</text>
	<text transform="matrix(1 0 0 1 -231.4297 43.2002)" display="inline" font-family="'MyriadPro-Regular'" font-size="12">e</text>
	<text transform="matrix(1 0 0 1 -226.6777 43.2002)" display="inline" font-family="'MyriadPro-Regular'" font-size="12">s</text>
	<text transform="matrix(1 0 0 1 -217.1738 43.2002)" display="inline" font-family="'MyriadPro-Regular'" font-size="12">%</text>
	<text transform="matrix(1 0 0 1 -211.0176 43.2002)" display="inline" font-family="'MyriadPro-Regular'" font-size="12">2</text>
	<text transform="matrix(1 0 0 1 -204.8613 43.2002)" display="inline" font-family="'MyriadPro-Regular'" font-size="12">0</text>
	<text transform="matrix(1 0 0 1 -8914 -8141)" display="inline" font-family="'MyriadPro-Regular'" font-size="12">/</text>
	<text transform="matrix(1 0 0 1 -200.7451 43.2002)" display="inline" font-family="'MyriadPro-Regular'" font-size="12">A</text>
	<text transform="matrix(1 0 0 1 -194.0371 43.2002)" display="inline" font-family="'MyriadPro-Regular'" font-size="12">W</text>
	<text transform="matrix(1 0 0 1 -183.8848 43.2002)" display="inline" font-family="'MyriadPro-Regular'" font-size="12">S</text>
	<text transform="matrix(1 0 0 1 -177.9092 43.2002)" display="inline" font-family="'MyriadPro-Regular'" font-size="12">-</text>
	<text transform="matrix(1 0 0 1 -174.2256 43.2002)" display="inline" font-family="'MyriadPro-Regular'" font-size="12">S</text>
	<text transform="matrix(1 0 0 1 -168.3096 43.2002)" display="inline" font-family="'MyriadPro-Regular'" font-size="12">i</text>
	<text transform="matrix(1 0 0 1 -165.502 43.2002)" display="inline" font-family="'MyriadPro-Regular'" font-size="12">m</text>
	<text transform="matrix(1 0 0 1 -155.4941 43.2002)" display="inline" font-family="'MyriadPro-Regular'" font-size="12">p</text>
	<text transform="matrix(1 0 0 1 -148.666 43.2002)" display="inline" font-family="'MyriadPro-Regular'" font-size="12">l</text>
	<text transform="matrix(1 0 0 1 -145.834 43.2002)" display="inline" font-family="'MyriadPro-Regular'" font-size="12">e</text>
	<text transform="matrix(1 0 0 1 -139.4863 43.2002)" display="inline" font-family="'MyriadPro-Regular'" font-size="12">-</text>
	<text transform="matrix(1 0 0 1 -135.8027 43.2002)" display="inline" font-family="'MyriadPro-Regular'" font-size="12">I</text>
	<text transform="matrix(1 0 0 1 -132.9346 43.2002)" display="inline" font-family="'MyriadPro-Regular'" font-size="12">c</text>
	<text transform="matrix(1 0 0 1 -127.6299 43.2002)" display="inline" font-family="'MyriadPro-Regular'" font-size="12">o</text>
	<text transform="matrix(1 0 0 1 -121.042 43.2002)" display="inline" font-family="'MyriadPro-Regular'" font-size="12">n</text>
	<text transform="matrix(1 0 0 1 -114.3818 43.2002)" display="inline" font-family="'MyriadPro-Regular'" font-size="12">s</text>
	<text transform="matrix(1 0 0 1 -109.6299 43.2002)" display="inline" font-family="'MyriadPro-Regular'" font-size="12">%</text>
	<text transform="matrix(1 0 0 1 -100.126 43.2002)" display="inline" font-family="'MyriadPro-Regular'" font-size="12">2</text>
	<text transform="matrix(1 0 0 1 -93.9697 43.2002)" display="inline" font-family="'MyriadPro-Regular'" font-size="12">0</text>
	<text transform="matrix(1 0 0 1 -87.8135 43.2002)" display="inline" font-family="'MyriadPro-Regular'" font-size="12">2</text>
	<text transform="matrix(1 0 0 1 -81.6572 43.2002)" display="inline" font-family="'MyriadPro-Regular'" font-size="12">/</text>
	<text transform="matrix(1 0 0 1 -77.541 43.2002)" display="inline" font-family="'MyriadPro-Regular'" font-size="12">D</text>
	<text transform="matrix(1 0 0 1 -69.5488 43.2002)" display="inline" font-family="'MyriadPro-Regular'" font-size="12">a</text>
	<text transform="matrix(1 0 0 1 -63.8125 43.2002)" display="inline" font-family="'MyriadPro-Regular'" font-size="12">t</text>
	<text transform="matrix(1 0 0 1 -59.8408 43.2002)" display="inline" font-family="'MyriadPro-Regular'" font-size="12">a</text>
	<text transform="matrix(1 0 0 1 -54.0566 43.2002)" display="inline" font-family="'MyriadPro-Regular'" font-size="12">b</text>
	<text transform="matrix(1 0 0 1 -47.2285 43.2002)" display="inline" font-family="'MyriadPro-Regular'" font-size="12">a</text>
	<text transform="matrix(1 0 0 1 -41.4443 43.2002)" display="inline" font-family="'MyriadPro-Regular'" font-size="12">s</text>
	<text transform="matrix(1 0 0 1 -36.6924 43.2002)" display="inline" font-family="'MyriadPro-Regular'" font-size="12">e</text>
	<text transform="matrix(1 0 0 1 -30.6807 43.2002)" display="inline" font-family="'MyriadPro-Regular'" font-size="12">/</text>
	<text transform="matrix(1 0 0 1 -26.5645 43.2002)" display="inline" font-family="'MyriadPro-Regular'" font-size="12">E</text>
	<text transform="matrix(1 0 0 1 -20.6602 43.2002)" display="inline" font-family="'MyriadPro-Regular'" font-size="12">P</text>
	<text transform="matrix(1 0 0 1 -14.2764 43.2002)" display="inline" font-family="'MyriadPro-Regular'" font-size="12">S</text>
	<text transform="matrix(1 0 0 1 -8.3604 43.2002)" display="inline" font-family="'MyriadPro-Regular'" font-size="12">&lt;</text>
	<text transform="matrix(1 0 0 1 -1.208 43.2002)" display="inline" font-family="'MyriadPro-Regular'" font-size="12">/</text>
	<text transform="matrix(1 0 0 1 2.9082 43.2002)" display="inline" font-family="'MyriadPro-Regular'" font-size="12">n</text>
	<text transform="matrix(1 0 0 1 9.4121 43.2002)" display="inline" font-family="'MyriadPro-Regular'" font-size="12">y</text>
	<text transform="matrix(1 0 0 1 15.0645 43.2002)" display="inline" font-family="'MyriadPro-Regular'" font-size="12">t</text>
	<text transform="matrix(1 0 0 1 19.0361 43.2002)" display="inline" font-family="'MyriadPro-Regular'" font-size="12">_</text>
	<text transform="matrix(1 0 0 1 25.0361 43.2002)" display="inline" font-family="'MyriadPro-Regular'" font-size="12">b</text>
	<text transform="matrix(1 0 0 1 31.8643 43.2002)" display="inline" font-family="'MyriadPro-Regular'" font-size="12">a</text>
	<text transform="matrix(1 0 0 1 37.6484 43.2002)" display="inline" font-family="'MyriadPro-Regular'" font-size="12">s</text>
	<text transform="matrix(1 0 0 1 42.4004 43.2002)" display="inline" font-family="'MyriadPro-Regular'" font-size="12">e</text>
	<text transform="matrix(1 0 0 1 48.4121 43.2002)" display="inline" font-family="'MyriadPro-Regular'" font-size="12">_</text>
	<text transform="matrix(1 0 0 1 54.4121 43.2002)" display="inline" font-family="'MyriadPro-Regular'" font-size="12">p</text>
	<text transform="matrix(1 0 0 1 61.2402 43.2002)" display="inline" font-family="'MyriadPro-Regular'" font-size="12">a</text>
	<text transform="matrix(1 0 0 1 66.9766 43.2002)" display="inline" font-family="'MyriadPro-Regular'" font-size="12">t</text>
	<text transform="matrix(1 0 0 1 70.9482 43.2002)" display="inline" font-family="'MyriadPro-Regular'" font-size="12">h</text>
	<text transform="matrix(1 0 0 1 77.6084 43.2002)" display="inline" font-family="'MyriadPro-Regular'" font-size="12">&gt;</text>
	<text transform="matrix(1 0 0 1 -773 57.5996)" display="inline" font-family="'MyriadPro-Regular'" font-size="12"> </text>
	<text transform="matrix(1 0 0 1 -770.4561 57.5996)" display="inline" font-family="'MyriadPro-Regular'" font-size="12"> </text>
	<text transform="matrix(1 0 0 1 -767.9121 57.5996)" display="inline" font-family="'MyriadPro-Regular'" font-size="12">&lt;</text>
	<text transform="matrix(1 0 0 1 -760.7603 57.5996)" display="inline" font-family="'MyriadPro-Regular'" font-size="12">n</text>
	<text transform="matrix(1 0 0 1 -754.2563 57.5996)" display="inline" font-family="'MyriadPro-Regular'" font-size="12">y</text>
	<text transform="matrix(1 0 0 1 -748.6045 57.5996)" display="inline" font-family="'MyriadPro-Regular'" font-size="12">t</text>
	<text transform="matrix(1 0 0 1 -744.6323 57.5996)" display="inline" font-family="'MyriadPro-Regular'" font-size="12">_</text>
	<text transform="matrix(1 0 0 1 -738.6323 57.5996)" display="inline" font-family="'MyriadPro-Regular'" font-size="12">s</text>
	<text transform="matrix(1 0 0 1 -733.8804 57.5996)" display="inline" font-family="'MyriadPro-Regular'" font-size="12">c</text>
	<text transform="matrix(1 0 0 1 -728.5044 57.5996)" display="inline" font-family="'MyriadPro-Regular'" font-size="12">a</text>
	<text transform="matrix(1 0 0 1 -722.7202 57.5996)" display="inline" font-family="'MyriadPro-Regular'" font-size="12">l</text>
	<text transform="matrix(1 0 0 1 -719.8887 57.5996)" display="inline" font-family="'MyriadPro-Regular'" font-size="12">i</text>
	<text transform="matrix(1 0 0 1 -717.0811 57.5996)" display="inline" font-family="'MyriadPro-Regular'" font-size="12">n</text>
	<text transform="matrix(1 0 0 1 -710.4209 57.5996)" display="inline" font-family="'MyriadPro-Regular'" font-size="12">g</text>
	<text transform="matrix(1 0 0 1 -703.7129 57.5996)" display="inline" font-family="'MyriadPro-Regular'" font-size="12">&gt;</text>
	<text transform="matrix(1 0 0 1 -696.5605 57.5996)" display="inline" font-family="'MyriadPro-Regular'" font-size="12">1</text>
	<text transform="matrix(1 0 0 1 -690.4043 57.5996)" display="inline" font-family="'MyriadPro-Regular'" font-size="12">0</text>
	<text transform="matrix(1 0 0 1 -684.248 57.5996)" display="inline" font-family="'MyriadPro-Regular'" font-size="12">0</text>
	<text transform="matrix(1 0 0 1 -678.0918 57.5996)" display="inline" font-family="'MyriadPro-Regular'" font-size="12">&lt;</text>
	<text transform="matrix(1 0 0 1 -670.9395 57.5996)" display="inline" font-family="'MyriadPro-Regular'" font-size="12">/</text>
	<text transform="matrix(1 0 0 1 -666.8232 57.5996)" display="inline" font-family="'MyriadPro-Regular'" font-size="12">n</text>
	<text transform="matrix(1 0 0 1 -660.3184 57.5996)" display="inline" font-family="'MyriadPro-Regular'" font-size="12">y</text>
	<text transform="matrix(1 0 0 1 -654.666 57.5996)" display="inline" font-family="'MyriadPro-Regular'" font-size="12">t</text>
	<text transform="matrix(1 0 0 1 -650.6943 57.5996)" display="inline" font-family="'MyriadPro-Regular'" font-size="12">_</text>
	<text transform="matrix(1 0 0 1 -644.6943 57.5996)" display="inline" font-family="'MyriadPro-Regular'" font-size="12">s</text>
	<text transform="matrix(1 0 0 1 -639.9424 57.5996)" display="inline" font-family="'MyriadPro-Regular'" font-size="12">c</text>
	<text transform="matrix(1 0 0 1 -634.5664 57.5996)" display="inline" font-family="'MyriadPro-Regular'" font-size="12">a</text>
	<text transform="matrix(1 0 0 1 -628.7822 57.5996)" display="inline" font-family="'MyriadPro-Regular'" font-size="12">l</text>
	<text transform="matrix(1 0 0 1 -625.9502 57.5996)" display="inline" font-family="'MyriadPro-Regular'" font-size="12">i</text>
	<text transform="matrix(1 0 0 1 -623.1426 57.5996)" display="inline" font-family="'MyriadPro-Regular'" font-size="12">n</text>
	<text transform="matrix(1 0 0 1 -616.4824 57.5996)" display="inline" font-family="'MyriadPro-Regular'" font-size="12">g</text>
	<text transform="matrix(1 0 0 1 -609.7744 57.5996)" display="inline" font-family="'MyriadPro-Regular'" font-size="12">&gt;</text>
	<text transform="matrix(1 0 0 1 -773 72)" display="inline" font-family="'MyriadPro-Regular'" font-size="12"> </text>
	<text transform="matrix(1 0 0 1 -770.4561 72)" display="inline" font-family="'MyriadPro-Regular'" font-size="12"> </text>
	<text transform="matrix(1 0 0 1 -767.9121 72)" display="inline" font-family="'MyriadPro-Regular'" font-size="12">&lt;</text>
	<text transform="matrix(1 0 0 1 -760.7603 72)" display="inline" font-family="'MyriadPro-Regular'" font-size="12">n</text>
	<text transform="matrix(1 0 0 1 -754.2563 72)" display="inline" font-family="'MyriadPro-Regular'" font-size="12">y</text>
	<text transform="matrix(1 0 0 1 -748.6045 72)" display="inline" font-family="'MyriadPro-Regular'" font-size="12">t</text>
	<text transform="matrix(1 0 0 1 -744.6323 72)" display="inline" font-family="'MyriadPro-Regular'" font-size="12">_</text>
	<text transform="matrix(1 0 0 1 -738.6323 72)" display="inline" font-family="'MyriadPro-Regular'" font-size="12">t</text>
	<text transform="matrix(1 0 0 1 -734.6606 72)" display="inline" font-family="'MyriadPro-Regular'" font-size="12">r</text>
	<text transform="matrix(1 0 0 1 -730.7969 72)" display="inline" font-family="'MyriadPro-Regular'" font-size="12">a</text>
	<text transform="matrix(1 0 0 1 -725.0127 72)" display="inline" font-family="'MyriadPro-Regular'" font-size="12">n</text>
	<text transform="matrix(1 0 0 1 -718.3525 72)" display="inline" font-family="'MyriadPro-Regular'" font-size="12">s</text>
	<text transform="matrix(1 0 0 1 -713.6006 72)" display="inline" font-family="'MyriadPro-Regular'" font-size="12">p</text>
	<text transform="matrix(1 0 0 1 -706.7725 72)" display="inline" font-family="'MyriadPro-Regular'" font-size="12">a</text>
	<text transform="matrix(1 0 0 1 -700.9883 72)" display="inline" font-family="'MyriadPro-Regular'" font-size="12">r</text>
	<text transform="matrix(1 0 0 1 -697.1846 72)" display="inline" font-family="'MyriadPro-Regular'" font-size="12">e</text>
	<text transform="matrix(1 0 0 1 -691.1729 72)" display="inline" font-family="'MyriadPro-Regular'" font-size="12">n</text>
	<text transform="matrix(1 0 0 1 -684.5127 72)" display="inline" font-family="'MyriadPro-Regular'" font-size="12">c</text>
	<text transform="matrix(1 0 0 1 -678.9209 72)" display="inline" font-family="'MyriadPro-Regular'" font-size="12">y</text>
	<text transform="matrix(1 0 0 1 -673.2686 72)" display="inline" font-family="'MyriadPro-Regular'" font-size="12">&gt;</text>
	<text transform="matrix(1 0 0 1 -666.1162 72)" display="inline" font-family="'MyriadPro-Regular'" font-size="12">t</text>
	<text transform="matrix(1 0 0 1 -662.1445 72)" display="inline" font-family="'MyriadPro-Regular'" font-size="12">r</text>
	<text transform="matrix(1 0 0 1 -658.2207 72)" display="inline" font-family="'MyriadPro-Regular'" font-size="12">u</text>
	<text transform="matrix(1 0 0 1 -651.6084 72)" display="inline" font-family="'MyriadPro-Regular'" font-size="12">e</text>
	<text transform="matrix(1 0 0 1 -645.5967 72)" display="inline" font-family="'MyriadPro-Regular'" font-size="12">&lt;</text>
	<text transform="matrix(1 0 0 1 -638.4443 72)" display="inline" font-family="'MyriadPro-Regular'" font-size="12">/</text>
	<text transform="matrix(1 0 0 1 -634.3281 72)" display="inline" font-family="'MyriadPro-Regular'" font-size="12">n</text>
	<text transform="matrix(1 0 0 1 -627.8232 72)" display="inline" font-family="'MyriadPro-Regular'" font-size="12">y</text>
	<text transform="matrix(1 0 0 1 -622.1709 72)" display="inline" font-family="'MyriadPro-Regular'" font-size="12">t</text>
	<text transform="matrix(1 0 0 1 -618.1992 72)" display="inline" font-family="'MyriadPro-Regular'" font-size="12">_</text>
	<text transform="matrix(1 0 0 1 -612.1992 72)" display="inline" font-family="'MyriadPro-Regular'" font-size="12">t</text>
	<text transform="matrix(1 0 0 1 -608.2275 72)" display="inline" font-family="'MyriadPro-Regular'" font-size="12">r</text>
	<text transform="matrix(1 0 0 1 -604.3633 72)" display="inline" font-family="'MyriadPro-Regular'" font-size="12">a</text>
	<text transform="matrix(1 0 0 1 -598.5801 72)" display="inline" font-family="'MyriadPro-Regular'" font-size="12">n</text>
	<text transform="matrix(1 0 0 1 -591.9199 72)" display="inline" font-family="'MyriadPro-Regular'" font-size="12">s</text>
	<text transform="matrix(1 0 0 1 -587.168 72)" display="inline" font-family="'MyriadPro-Regular'" font-size="12">p</text>
	<text transform="matrix(1 0 0 1 -580.3398 72)" display="inline" font-family="'MyriadPro-Regular'" font-size="12">a</text>
	<text transform="matrix(1 0 0 1 -574.5547 72)" display="inline" font-family="'MyriadPro-Regular'" font-size="12">r</text>
	<text transform="matrix(1 0 0 1 -570.751 72)" display="inline" font-family="'MyriadPro-Regular'" font-size="12">e</text>
	<text transform="matrix(1 0 0 1 -564.7393 72)" display="inline" font-family="'MyriadPro-Regular'" font-size="12">n</text>
	<text transform="matrix(1 0 0 1 -558.0791 72)" display="inline" font-family="'MyriadPro-Regular'" font-size="12">c</text>
	<text transform="matrix(1 0 0 1 -552.4873 72)" display="inline" font-family="'MyriadPro-Regular'" font-size="12">y</text>
	<text transform="matrix(1 0 0 1 -546.835 72)" display="inline" font-family="'MyriadPro-Regular'" font-size="12">&gt;</text>
	<text transform="matrix(1 0 0 1 -773 86.4004)" display="inline" font-family="'MyriadPro-Regular'" font-size="12"> </text>
	<text transform="matrix(1 0 0 1 -770.4561 86.4004)" display="inline" font-family="'MyriadPro-Regular'" font-size="12"> </text>
	<text transform="matrix(1 0 0 1 -767.9121 86.4004)" display="inline" font-family="'MyriadPro-Regular'" font-size="12">&lt;</text>
	<text transform="matrix(1 0 0 1 -760.7603 86.4004)" display="inline" font-family="'MyriadPro-Regular'" font-size="12">n</text>
	<text transform="matrix(1 0 0 1 -754.2563 86.4004)" display="inline" font-family="'MyriadPro-Regular'" font-size="12">y</text>
	<text transform="matrix(1 0 0 1 -748.6045 86.4004)" display="inline" font-family="'MyriadPro-Regular'" font-size="12">t</text>
	<text transform="matrix(1 0 0 1 -744.6323 86.4004)" display="inline" font-family="'MyriadPro-Regular'" font-size="12">_</text>
	<text transform="matrix(1 0 0 1 -738.6323 86.4004)" display="inline" font-family="'MyriadPro-Regular'" font-size="12">f</text>
	<text transform="matrix(1 0 0 1 -735.2842 86.4004)" display="inline" font-family="'MyriadPro-Regular'" font-size="12">o</text>
	<text transform="matrix(1 0 0 1 -728.6963 86.4004)" display="inline" font-family="'MyriadPro-Regular'" font-size="12">r</text>
	<text transform="matrix(1 0 0 1 -724.7246 86.4004)" display="inline" font-family="'MyriadPro-Regular'" font-size="12">m</text>
	<text transform="matrix(1 0 0 1 -714.7168 86.4004)" display="inline" font-family="'MyriadPro-Regular'" font-size="12">a</text>
	<text transform="matrix(1 0 0 1 -708.9805 86.4004)" display="inline" font-family="'MyriadPro-Regular'" font-size="12">t</text>
	<text transform="matrix(1 0 0 1 -705.0088 86.4004)" display="inline" font-family="'MyriadPro-Regular'" font-size="12">&gt;</text>
	<text transform="matrix(1 0 0 1 -697.8564 86.4004)" display="inline" font-family="'MyriadPro-Regular'" font-size="12">E</text>
	<text transform="matrix(1 0 0 1 -691.9521 86.4004)" display="inline" font-family="'MyriadPro-Regular'" font-size="12">P</text>
	<text transform="matrix(1 0 0 1 -685.5684 86.4004)" display="inline" font-family="'MyriadPro-Regular'" font-size="12">S</text>
	<text transform="matrix(1 0 0 1 -679.6523 86.4004)" display="inline" font-family="'MyriadPro-Regular'" font-size="12">&lt;</text>
	<text transform="matrix(1 0 0 1 -672.5 86.4004)" display="inline" font-family="'MyriadPro-Regular'" font-size="12">/</text>
	<text transform="matrix(1 0 0 1 -668.3838 86.4004)" display="inline" font-family="'MyriadPro-Regular'" font-size="12">n</text>
	<text transform="matrix(1 0 0 1 -661.8799 86.4004)" display="inline" font-family="'MyriadPro-Regular'" font-size="12">y</text>
	<text transform="matrix(1 0 0 1 -656.2275 86.4004)" display="inline" font-family="'MyriadPro-Regular'" font-size="12">t</text>
	<text transform="matrix(1 0 0 1 -652.2559 86.4004)" display="inline" font-family="'MyriadPro-Regular'" font-size="12">_</text>
	<text transform="matrix(1 0 0 1 -646.2559 86.4004)" display="inline" font-family="'MyriadPro-Regular'" font-size="12">f</text>
	<text transform="matrix(1 0 0 1 -642.9072 86.4004)" display="inline" font-family="'MyriadPro-Regular'" font-size="12">o</text>
	<text transform="matrix(1 0 0 1 -636.3193 86.4004)" display="inline" font-family="'MyriadPro-Regular'" font-size="12">r</text>
	<text transform="matrix(1 0 0 1 -632.3477 86.4004)" display="inline" font-family="'MyriadPro-Regular'" font-size="12">m</text>
	<text transform="matrix(1 0 0 1 -622.3398 86.4004)" display="inline" font-family="'MyriadPro-Regular'" font-size="12">a</text>
	<text transform="matrix(1 0 0 1 -616.6035 86.4004)" display="inline" font-family="'MyriadPro-Regular'" font-size="12">t</text>
	<text transform="matrix(1 0 0 1 -612.6318 86.4004)" display="inline" font-family="'MyriadPro-Regular'" font-size="12">&gt;</text>
	<text transform="matrix(1 0 0 1 -773 100.7998)" display="inline" font-family="'MyriadPro-Regular'" font-size="12"> </text>
	<text transform="matrix(1 0 0 1 -770.4561 100.7998)" display="inline" font-family="'MyriadPro-Regular'" font-size="12"> </text>
	<text transform="matrix(1 0 0 1 -767.9121 100.7998)" display="inline" font-family="'MyriadPro-Regular'" font-size="12">&lt;</text>
	<text transform="matrix(1 0 0 1 -760.7603 100.7998)" display="inline" font-family="'MyriadPro-Regular'" font-size="12">n</text>
	<text transform="matrix(1 0 0 1 -754.2563 100.7998)" display="inline" font-family="'MyriadPro-Regular'" font-size="12">y</text>
	<text transform="matrix(1 0 0 1 -748.6045 100.7998)" display="inline" font-family="'MyriadPro-Regular'" font-size="12">t</text>
	<text transform="matrix(1 0 0 1 -744.6323 100.7998)" display="inline" font-family="'MyriadPro-Regular'" font-size="12">_</text>
	<text transform="matrix(1 0 0 1 -738.6323 100.7998)" display="inline" font-family="'MyriadPro-Regular'" font-size="12">e</text>
	<text transform="matrix(1 0 0 1 -732.6567 100.7998)" display="inline" font-family="'MyriadPro-Regular'" font-size="12">x</text>
	<text transform="matrix(1 0 0 1 -727.1006 100.7998)" display="inline" font-family="'MyriadPro-Regular'" font-size="12">p</text>
	<text transform="matrix(1 0 0 1 -720.2725 100.7998)" display="inline" font-family="'MyriadPro-Regular'" font-size="12">o</text>
	<text transform="matrix(1 0 0 1 -713.6846 100.7998)" display="inline" font-family="'MyriadPro-Regular'" font-size="12">r</text>
	<text transform="matrix(1 0 0 1 -709.4736 100.7998)" display="inline" font-family="'MyriadPro-Regular'" font-size="12">t</text>
	<text transform="matrix(1 0 0 1 -705.502 100.7998)" display="inline" font-family="'MyriadPro-Regular'" font-size="12">_</text>
	<text transform="matrix(1 0 0 1 -699.502 100.7998)" display="inline" font-family="'MyriadPro-Regular'" font-size="12">c</text>
	<text transform="matrix(1 0 0 1 -694.1973 100.7998)" display="inline" font-family="'MyriadPro-Regular'" font-size="12">o</text>
	<text transform="matrix(1 0 0 1 -687.6094 100.7998)" display="inline" font-family="'MyriadPro-Regular'" font-size="12">d</text>
	<text transform="matrix(1 0 0 1 -680.8418 100.7998)" display="inline" font-family="'MyriadPro-Regular'" font-size="12">e</text>
	<text transform="matrix(1 0 0 1 -674.8301 100.7998)" display="inline" font-family="'MyriadPro-Regular'" font-size="12">&gt;</text>
	<text transform="matrix(1 0 0 1 -667.6777 100.7998)" display="inline" font-family="'MyriadPro-Regular'" font-size="12">a</text>
	<text transform="matrix(1 0 0 1 -661.8936 100.7998)" display="inline" font-family="'MyriadPro-Regular'" font-size="12">r</text>
	<text transform="matrix(1 0 0 1 -657.6816 100.7998)" display="inline" font-family="'MyriadPro-Regular'" font-size="12">t</text>
	<text transform="matrix(1 0 0 1 -653.7109 100.7998)" display="inline" font-family="'MyriadPro-Regular'" font-size="12">b</text>
	<text transform="matrix(1 0 0 1 -646.8828 100.7998)" display="inline" font-family="'MyriadPro-Regular'" font-size="12">o</text>
	<text transform="matrix(1 0 0 1 -640.2949 100.7998)" display="inline" font-family="'MyriadPro-Regular'" font-size="12">a</text>
	<text transform="matrix(1 0 0 1 -634.5098 100.7998)" display="inline" font-family="'MyriadPro-Regular'" font-size="12">r</text>
	<text transform="matrix(1 0 0 1 -630.7061 100.7998)" display="inline" font-family="'MyriadPro-Regular'" font-size="12">d</text>
	<text transform="matrix(1 0 0 1 -623.9385 100.7998)" display="inline" font-family="'MyriadPro-Regular'" font-size="12">s</text>
	<text transform="matrix(1 0 0 1 -619.1865 100.7998)" display="inline" font-family="'MyriadPro-Regular'" font-size="12">&lt;</text>
	<text transform="matrix(1 0 0 1 -612.0342 100.7998)" display="inline" font-family="'MyriadPro-Regular'" font-size="12">/</text>
	<text transform="matrix(1 0 0 1 -607.918 100.7998)" display="inline" font-family="'MyriadPro-Regular'" font-size="12">n</text>
	<text transform="matrix(1 0 0 1 -601.4141 100.7998)" display="inline" font-family="'MyriadPro-Regular'" font-size="12">y</text>
	<text transform="matrix(1 0 0 1 -595.7617 100.7998)" display="inline" font-family="'MyriadPro-Regular'" font-size="12">t</text>
	<text transform="matrix(1 0 0 1 -591.79 100.7998)" display="inline" font-family="'MyriadPro-Regular'" font-size="12">_</text>
	<text transform="matrix(1 0 0 1 -585.79 100.7998)" display="inline" font-family="'MyriadPro-Regular'" font-size="12">e</text>
	<text transform="matrix(1 0 0 1 -579.8145 100.7998)" display="inline" font-family="'MyriadPro-Regular'" font-size="12">x</text>
	<text transform="matrix(1 0 0 1 -574.2588 100.7998)" display="inline" font-family="'MyriadPro-Regular'" font-size="12">p</text>
	<text transform="matrix(1 0 0 1 -567.4307 100.7998)" display="inline" font-family="'MyriadPro-Regular'" font-size="12">o</text>
	<text transform="matrix(1 0 0 1 -560.8428 100.7998)" display="inline" font-family="'MyriadPro-Regular'" font-size="12">r</text>
	<text transform="matrix(1 0 0 1 -556.6309 100.7998)" display="inline" font-family="'MyriadPro-Regular'" font-size="12">t</text>
	<text transform="matrix(1 0 0 1 -552.6592 100.7998)" display="inline" font-family="'MyriadPro-Regular'" font-size="12">_</text>
	<text transform="matrix(1 0 0 1 -546.6592 100.7998)" display="inline" font-family="'MyriadPro-Regular'" font-size="12">c</text>
	<text transform="matrix(1 0 0 1 -541.3555 100.7998)" display="inline" font-family="'MyriadPro-Regular'" font-size="12">o</text>
	<text transform="matrix(1 0 0 1 -534.7676 100.7998)" display="inline" font-family="'MyriadPro-Regular'" font-size="12">d</text>
	<text transform="matrix(1 0 0 1 -528 100.7998)" display="inline" font-family="'MyriadPro-Regular'" font-size="12">e</text>
	<text transform="matrix(1 0 0 1 -521.9883 100.7998)" display="inline" font-family="'MyriadPro-Regular'" font-size="12">&gt;</text>
	<text transform="matrix(1 0 0 1 -773 115.2002)" display="inline" font-family="'MyriadPro-Regular'" font-size="12">&lt;</text>
	<text transform="matrix(1 0 0 1 -765.8481 115.2002)" display="inline" font-family="'MyriadPro-Regular'" font-size="12">/</text>
	<text transform="matrix(1 0 0 1 -761.7324 115.2002)" display="inline" font-family="'MyriadPro-Regular'" font-size="12">n</text>
	<text transform="matrix(1 0 0 1 -755.228 115.2002)" display="inline" font-family="'MyriadPro-Regular'" font-size="12">y</text>
	<text transform="matrix(1 0 0 1 -749.5762 115.2002)" display="inline" font-family="'MyriadPro-Regular'" font-size="12">t</text>
	<text transform="matrix(1 0 0 1 -745.604 115.2002)" display="inline" font-family="'MyriadPro-Regular'" font-size="12">_</text>
	<text transform="matrix(1 0 0 1 -739.604 115.2002)" display="inline" font-family="'MyriadPro-Regular'" font-size="12">p</text>
	<text transform="matrix(1 0 0 1 -732.7764 115.2002)" display="inline" font-family="'MyriadPro-Regular'" font-size="12">r</text>
	<text transform="matrix(1 0 0 1 -728.9727 115.2002)" display="inline" font-family="'MyriadPro-Regular'" font-size="12">e</text>
	<text transform="matrix(1 0 0 1 -722.9609 115.2002)" display="inline" font-family="'MyriadPro-Regular'" font-size="12">f</text>
	<text transform="matrix(1 0 0 1 -719.5654 115.2002)" display="inline" font-family="'MyriadPro-Regular'" font-size="12">s</text>
	<text transform="matrix(1 0 0 1 -714.8135 115.2002)" display="inline" font-family="'MyriadPro-Regular'" font-size="12">&gt;</text>
</g>
</svg>
