<?xml version="1.0" encoding="utf-8"?>
<!-- Generator: Adobe Illustrator 16.0.0, SVG Export Plug-In . SVG Version: 6.00 Build 0)  -->
<svg version="1.2" baseProfile="tiny" xmlns="http://www.w3.org/2000/svg" xmlns:xlink="http://www.w3.org/1999/xlink" x="0px"
	 y="0px" width="100px" height="100px" viewBox="0 0 100 100" xml:space="preserve">
<g id="Layer_1">
	<g>
		<g>
			<g>
				<path fill="#19486F" d="M77.724,67.609v2.615c0,0.363-0.025,0.721-0.074,1.07v-2.613C77.698,68.33,77.724,67.975,77.724,67.609"
					/>
				<path fill="#19486F" d="M77.649,68.682v2.613c-0.062,0.414-0.156,0.818-0.279,1.207v-2.613
					C77.493,69.498,77.587,69.094,77.649,68.682"/>
				<path fill="#19486F" d="M77.37,69.889v2.613c-0.146,0.459-0.34,0.9-0.57,1.316v-2.613C77.03,70.787,77.224,70.348,77.37,69.889"
					/>
			</g>
			<path fill="#19486F" d="M77.724,67.609v2.615c0,4.137-3.381,7.494-7.549,7.494v-2.615C74.343,75.104,77.724,71.746,77.724,67.609
				z"/>
			<g>
				<polygon fill="#19486F" points="71.313,74.303 70.175,77.719 32.554,77.719 32.554,75.104 				"/>
			</g>
			<path fill="#19486F" d="M32.554,75.104v2.615c-4.166,0-7.537-3.357-7.537-7.494v-2.615
				C25.017,71.746,28.388,75.104,32.554,75.104z"/>
			<g>
				<path fill="#2E73B7" d="M70.175,21.734c4.168,0,7.549,3.342,7.549,7.48v38.395c0,4.137-3.381,7.494-7.549,7.494H32.554
					c-4.166,0-7.537-3.357-7.537-7.494V29.215c0-4.139,3.371-7.48,7.537-7.48H70.175z"/>
			</g>
		</g>
	</g>
	<polygon fill="#FFFFFF" points="70,40 70,36 65,36 65,31 61,31 61,36 59,36 59,31 55,31 55,36 53,36 53,31 49,31 49,36 47,36 
		47,31 43,31 43,36 41,36 41,31 37,31 37,36 32,36 32,40 37,40 37,42 32,42 32,46 37,46 37,48 32,48 32,52 37,52 37,54 32,54 32,58 
		37,58 37,60 32,60 32,64 37,64 37,69 41,69 41,64 43,64 43,69 47,69 47,64 49,64 49,69 53,69 53,64 55,64 55,69 59,69 59,64 61,64 
		61,69 65,69 65,64 70,64 70,60 65,60 65,58 70,58 70,54 65,54 65,52 70,52 70,48 65,48 65,46 70,46 70,42 65,42 65,40 	"/>
	<path fill="#2E73B7" d="M43.719,40.904h9.578c3.187,0,5.201,2.2,5.201,4.87c0,2.075-0.846,3.631-2.812,4.423v0.051
		c1.918,0.492,2.464,2.347,2.591,4.126c0.071,1.112,0.047,3.188,0.744,4.176h-3.906c-0.474-1.112-0.424-2.815-0.624-4.225
		c-0.271-1.853-0.993-2.67-2.96-2.67h-3.907v6.895h-3.905V40.904z M47.624,48.887h4.281c1.74,0,2.688-0.74,2.688-2.521
		c0-1.703-0.948-2.445-2.688-2.445h-4.281V48.887z"/>
</g>
<g id="nyt_x5F_exporter_x5F_info" display="none">
</g>
</svg>
