<?xml version="1.0" encoding="utf-8"?>
<!-- Generator: Adobe Illustrator 16.0.0, SVG Export Plug-In . SVG Version: 6.00 Build 0)  -->
<svg version="1.2" baseProfile="tiny" xmlns="http://www.w3.org/2000/svg" xmlns:xlink="http://www.w3.org/1999/xlink" x="0px"
	 y="0px" width="100px" height="100px" viewBox="0 0 100 100" xml:space="preserve">
<g id="Layer_1">
	<g>
		<g>
			<g>
				<path fill="#19486F" d="M77.354,67.836v2.615c0,0.363-0.025,0.721-0.074,1.07v-2.613C77.328,68.557,77.354,68.201,77.354,67.836
					"/>
				<path fill="#19486F" d="M77.279,68.908v2.613c-0.062,0.414-0.156,0.818-0.279,1.207v-2.613
					C77.123,69.725,77.217,69.32,77.279,68.908"/>
				<path fill="#19486F" d="M77,70.115v2.613c-0.146,0.459-0.34,0.9-0.57,1.316v-2.613C76.66,71.014,76.854,70.574,77,70.115"/>
			</g>
			<path fill="#19486F" d="M77.354,67.836v2.615c0,4.137-3.381,7.494-7.549,7.494V75.33C73.973,75.33,77.354,71.973,77.354,67.836z"
				/>
			<g>
				<polygon fill="#19486F" points="70.943,74.529 69.805,77.945 32.184,77.945 32.184,75.33 				"/>
			</g>
			<path fill="#19486F" d="M32.184,75.33v2.615c-4.166,0-7.537-3.357-7.537-7.494v-2.615C24.646,71.973,28.018,75.33,32.184,75.33z"
				/>
			<g>
				<path fill="#2E73B7" d="M69.805,21.961c4.168,0,7.549,3.342,7.549,7.48v38.395c0,4.137-3.381,7.494-7.549,7.494H32.184
					c-4.166,0-7.537-3.357-7.537-7.494V29.441c0-4.139,3.371-7.48,7.537-7.48H69.805z"/>
			</g>
		</g>
	</g>
	<polygon fill="#FFFFFF" points="70,40 70,36 65,36 65,31 61,31 61,36 59,36 59,31 55,31 55,36 53,36 53,31 49,31 49,36 47,36 
		47,31 43,31 43,36 41,36 41,31 37,31 37,36 32,36 32,40 37,40 37,42 32,42 32,46 37,46 37,48 32,48 32,52 37,52 37,54 32,54 32,58 
		37,58 37,60 32,60 32,64 37,64 37,69 41,69 41,64 43,64 43,69 47,69 47,64 49,64 49,69 53,69 53,64 55,64 55,69 59,69 59,64 61,64 
		61,69 65,69 65,64 70,64 70,60 65,60 65,58 70,58 70,54 65,54 65,52 70,52 70,48 65,48 65,46 70,46 70,42 65,42 65,40 	"/>
	<path fill="#2E73B7" d="M42.12,41.766h5.104l3.854,11.261h0.047l3.649-11.261h5.104v16.376h-3.395V46.537h-0.048l-4.041,11.604
		h-2.794l-4.04-11.489h-0.049v11.489H42.12V41.766z"/>
</g>
<g id="nyt_x5F_exporter_x5F_info" display="none">
</g>
</svg>
