<?xml version="1.0" encoding="utf-8"?>
<!-- Generator: Adobe Illustrator 16.0.0, SVG Export Plug-In . SVG Version: 6.00 Build 0)  -->
<svg version="1.2" baseProfile="tiny" xmlns="http://www.w3.org/2000/svg" xmlns:xlink="http://www.w3.org/1999/xlink" x="0px"
	 y="0px" width="100px" height="100px" viewBox="0 0 100 100" xml:space="preserve">
<g id="Layer_3">
</g>
<g id="Layer_1">
	<g>
		<path fill="#9D5025" d="M79,56.073V26.832c0-2.759-5.056-1.998-7.833-1.998L31.113,22C28.336,22,26,24.327,26,27.086v46.748
			C26,76.593,28.336,79,31.113,79c0,0,25.183-9.949,25.201-13.475S64.667,49,79,56.073z"/>
		<path fill="#9D5025" d="M83.847,68.25c0,9.584-5.451,14.177-12.177,14.177s-12.177-4.26-12.177-13.426
			c0-6.726,5.451-9.928,12.177-9.928S83.847,61.524,83.847,68.25z"/>
		<g>
			<path fill="#9D5025" d="M30.858,75.984v2.973c-2.639,0-4.77-2.113-4.77-4.732V71.25C26.089,73.871,28.22,75.984,30.858,75.984"/>
		</g>
		<path fill="#9D5025" d="M30.858,75.984v2.973c-2.639,0-4.77-2.113-4.77-4.732V71.25C26.089,73.871,28.22,75.984,30.858,75.984z"/>
		<circle fill="#F58536" cx="71.67" cy="68.25" r="12.177"/>
		<text transform="matrix(1 0 0 1 66.376 75.1035)" fill="#FFFFFF" font-family="'HelveticaNeue-CondensedBold'" font-size="18">K</text>
		<path fill="#9D5025" d="M57.879,75.733L29.47,75.28L30.858,79h29.164C59.186,78,58.469,76.9,57.879,75.733z"/>
		<path fill="#F58536" d="M56.091,68.258c0-9.157,7.265-16.583,16.423-16.583c2.363,0,4.486,0.499,6.486,1.391V26.832
			C79,24.211,77.183,22,74.544,22H30.858C28.22,22,26,24.211,26,26.832V71.25c0,2.621,2.22,4.75,4.858,4.75h27.152
			C56.789,74,56.091,71.053,56.091,68.258z"/>
	</g>
</g>
<g id="nyt_x5F_exporter_x5F_info" display="none">
</g>
</svg>
