<?xml version="1.0" encoding="utf-8"?>
<!-- Generator: Adobe Illustrator 16.0.0, SVG Export Plug-In . SVG Version: 6.00 Build 0)  -->
<svg version="1.2" baseProfile="tiny" xmlns="http://www.w3.org/2000/svg" xmlns:xlink="http://www.w3.org/1999/xlink" x="0px"
	 y="0px" width="102.665px" height="102.665px" viewBox="0 0 102.665 102.665" xml:space="preserve">
<g id="Layer_3">
</g>
<g id="Layer_1">
	<g>
		<g>
			<polygon fill="#19486F" points="32.485,37.193 32.485,37.256 32.458,37.217 			"/>
		</g>
	</g>
	<path fill="#9D5125" d="M83.124,41.001h-2.711c-2.008,0-3.659,1.111-3.854,3h-4.455c-0.49-3.777-1.961-7-3.699-7h-1.162h-6.245
		v-1.222c0-2.139-0.912-3.778-3.051-3.778h-4.949v-3h6.014c0.695,0,1.986-0.982,1.986-1.678V26.13c0-0.695-1.291-0.129-1.986-0.129
		H37.515c-0.695,0-1.517-0.566-1.517,0.129v1.193c0,0.695,0.821,1.678,1.517,1.678h6.483v3H38.58c-2.141,0-4.582,1.64-4.582,3.778
		v1.222h-8.201c-2.14,0-3.799,2.062-3.799,4.201v11.799h-5V39.847c0-0.748-1.041-1.355-2-1.355s-2,0.607-2,1.355v30.988
		c0,0.748,1.041,1.355,2,1.355s2-0.607,2-1.355V58.001h5v11.091c0,2.14,1.659,3.909,3.799,3.909h17.159c0.665,3,1.925,5,3.37,5
		h22.079c1.9,0,3.48-4,3.81-8h4.783v0.641c0,2.139,1.275,3.359,3.415,3.359h2.711c2.14,0,3.874-1.221,3.874-3.359V44.688
		C86.998,42.55,85.264,41.001,83.124,41.001z"/>
	<path fill="#F48334" d="M83.124,39.001h-2.711c-2.008,0-3.659,1.111-3.854,3h-4.455c-0.49-3.777-1.961-7-3.699-7h-1.162h-6.245
		v-1.222c0-2.139-0.912-3.778-3.051-3.778h-4.949v-2h6.014c0.695,0,1.986-0.982,1.986-1.678V26.13c0-0.695-1.291-1.129-1.986-1.129
		H37.515c-0.695,0-1.517,0.434-1.517,1.129v0.193c0,0.695,0.821,1.678,1.517,1.678h6.483v2H38.58c-2.141,0-4.582,1.64-4.582,3.778
		v1.222h-8.201c-2.14,0-3.799,2.062-3.799,4.201v11.799h-5V37.847c0-0.748-1.041-1.355-2-1.355s-2,0.607-2,1.355v30.988
		c0,0.748,1.041,1.355,2,1.355s2-0.607,2-1.355V56.001h5v11.091c0,2.14,1.659,3.909,3.799,3.909h17.159c0.665,3,1.925,5,3.37,5
		h22.079c1.9,0,3.48-4,3.81-8h4.783v0.641c0,2.139,1.275,3.359,3.415,3.359h2.711c2.14,0,3.874-1.221,3.874-3.359V42.688
		C86.998,40.55,85.264,39.001,83.124,39.001z"/>
	<g>
		
			<text transform="matrix(1 0 0 1 31.1172 58.2686)" fill="#FFFFFF" font-family="'HelveticaNeue-CondensedBold'" font-size="12.4271">MapR M5</text>
	</g>
</g>
<g id="nyt_x5F_exporter_x5F_info" display="none">
</g>
</svg>
