<?xml version="1.0" encoding="utf-8"?>
<!-- Generator: Adobe Illustrator 16.0.0, SVG Export Plug-In . SVG Version: 6.00 Build 0)  -->
<svg version="1.2" baseProfile="tiny" xmlns="http://www.w3.org/2000/svg" xmlns:xlink="http://www.w3.org/1999/xlink" x="0px"
	 y="0px" width="100px" height="100px" viewBox="0 0 100 100" xml:space="preserve">
<g id="Layer_3">
</g>
<g id="Layer_1">
	<g>
		<g>
			<path fill="#9D5025" d="M76.593,71.823v2.975c0,0.23-0.016,0.457-0.049,0.68v-2.975C76.577,72.282,76.593,72.056,76.593,71.823"
				/>
			<path fill="#9D5025" d="M76.544,72.503v2.975c-0.039,0.262-0.098,0.518-0.174,0.764v-2.973
				C76.446,73.024,76.505,72.767,76.544,72.503"/>
			<path fill="#9D5025" d="M76.37,73.269v2.973c-0.096,0.291-0.217,0.568-0.361,0.832v-2.973
				C76.153,73.839,76.274,73.56,76.37,73.269"/>
			<path fill="#9D5025" d="M76.009,74.101v2.973C75.2,78.54,73.63,79.53,71.823,79.53v-2.973
				C73.63,76.558,75.2,75.569,76.009,74.101"/>
		</g>
		<path fill="#9D5025" d="M76.593,71.823v2.975c0,2.619-2.131,4.732-4.77,4.732l-1.574-3.875
			C72.89,75.655,76.593,74.444,76.593,71.823z"/>
		<g>
			<path fill="#9D5025" d="M28.138,76.558v2.973c-2.639,0-4.77-2.113-4.77-4.732v-2.975C23.368,74.444,25.499,76.558,28.138,76.558"
				/>
		</g>
		<path fill="#9D5025" d="M28.138,76.558v2.973c-2.639,0-4.77-2.113-4.77-4.732v-2.975C23.368,74.444,25.499,76.558,28.138,76.558z"
			/>
		<g>
			<polygon fill="#9D5025" points="71.823,76.558 71.823,79.53 28.138,79.53 26.749,75.821 			"/>
		</g>
		<g>
			<path fill="#F58536" d="M71.823,22.671c2.639,0,4.77,2.113,4.77,4.734v44.418c0,2.621-2.131,4.734-4.77,4.734H28.138
				c-2.639,0-4.77-2.113-4.77-4.734V27.405c0-2.621,2.131-4.734,4.77-4.734H71.823z"/>
		</g>
	</g>
	<text transform="matrix(1 0 0 1 53.9453 71.9746)" fill="#FFFFFF" font-family="'HelveticaNeue-CondensedBold'" font-size="18">C3</text>
</g>
<g id="nyt_x5F_exporter_x5F_info" display="none">
</g>
</svg>
