<?xml version="1.0" encoding="utf-8"?>
<!-- Generator: Adobe Illustrator 16.0.0, SVG Export Plug-In . SVG Version: 6.00 Build 0)  -->
<svg version="1.2" baseProfile="tiny" xmlns="http://www.w3.org/2000/svg" xmlns:xlink="http://www.w3.org/1999/xlink" x="0px"
	 y="0px" width="100px" height="100px" viewBox="0 0 100 100" xml:space="preserve">
<g id="Layer_1">
</g>
<g id="nyt_x5F_exporter_x5F_info" display="none">
</g>
<g id="CloudTrail">
	<path fill="#737678" d="M70,71.669c0,3.313-3.224,6.333-7.2,6.333H35.2c-3.977,0-7.2-3.02-7.2-6.333v-42
		c0-3.313,3.224-5.667,7.2-5.667h27.6c3.977,0,7.2,2.354,7.2,5.667V71.669z"/>
	<path fill="#C5C6C7" d="M70,68.669c0,3.313-3.455,6.333-7.407,6.333H35.157c-3.952,0-7.157-3.02-7.157-6.333v-42
		c0-3.313,3.205-5.667,7.157-5.667h27.436c3.952,0,7.407,2.354,7.407,5.667V68.669z"/>
	<polygon fill="#769B3F" points="37.393,31.414 34.599,28.378 31.512,31.466 31.512,31.466 37.33,37.285 47.162,27.453 
		44.916,25.169 	"/>
	<polygon fill="#769B3F" points="37.393,45.358 34.599,42.322 31.512,45.41 31.512,45.41 37.33,51.229 47.162,41.397 44.916,39.113 
			"/>
	
		<text transform="matrix(1.6452 0 0 1 31.3633 66.0264)" fill="#E15343" font-family="'HelveticaNeue-BlackCond'" font-size="15.568">X</text>
</g>
</svg>
