<?xml version="1.0" encoding="utf-8"?>
<!-- Generator: Adobe Illustrator 16.0.0, SVG Export Plug-In . SVG Version: 6.00 Build 0)  -->
<svg version="1.2" baseProfile="tiny" xmlns="http://www.w3.org/2000/svg" xmlns:xlink="http://www.w3.org/1999/xlink" x="0px"
	 y="0px" width="99.333px" height="99.333px" viewBox="0 0 99.333 99.333" xml:space="preserve">
<g id="Layer_1">
</g>
<g id="nyt_x5F_exporter_x5F_info" display="none">
</g>
<g id="CloudTrail">
	<path fill="#737678" d="M30.085,71C26.847,71,24,67.98,24,64.667v-23C24,38.354,26.847,36,30.085,36h41.051
		C74.374,36,77,38.354,77,41.667v23C77,67.98,74.374,71,71.136,71H30.085z"/>
	<path fill="#FFFFFF" d="M30.085,68C26.847,68,24,64.98,24,61.667v-23C24,35.354,26.847,33,30.085,33h41.051
		C74.374,33,77,35.354,77,38.667v23C77,64.98,74.374,68,71.136,68H30.085z"/>
	<g>
		<path fill="#737678" d="M64.598,52.51l3.496,3.262l-1.582,2.94l-18.139,0.252c-0.038,0.124-0.229,0.563-0.555,1.151
			c-0.268,0.517-0.594,1.023-0.994,1.479c-0.363,0.456-0.798,0.899-1.304,1.293c-1.79,1.455-3.948,2.167-6.101,2.167
			c-2.443,0-4.87-0.919-6.717-2.694c-0.266-0.248-0.521-0.525-0.762-0.814c-3.386-4.104-2.78-10.143,1.354-13.49
			c1.792-1.461,3.956-2.172,6.108-2.172c2.162,0,4.311,0.716,6.057,2.114c1.317,0.969,2.168,2.37,2.211,2.447l1.014,0.047
			l4.428-0.062l1.558,2.717l3.751-0.352l1.438,1.477l1.316,0.287L64.598,52.51z M35.169,57.837c1.403-0.013,2.517-1.165,2.501-2.545
			c-0.021-1.384-1.158-2.487-2.551-2.487c-0.008,0-0.014,0-0.023,0.004c-1.388,0.021-2.515,1.162-2.488,2.555
			c0.01,1.365,1.133,2.474,2.518,2.474C35.139,57.837,35.155,57.837,35.169,57.837"/>
	</g>
	<g>
		<path fill="#769B3F" d="M40.569,43.712l-3.496-3.263l1.583-2.939l18.139-0.253c0.037-0.124,0.229-0.563,0.555-1.151
			c0.268-0.517,0.593-1.023,0.992-1.479c0.364-0.455,0.799-0.898,1.305-1.293c1.791-1.455,3.949-2.166,6.101-2.166
			c2.444,0,4.87,0.918,6.718,2.693c0.264,0.249,0.52,0.525,0.762,0.814c3.385,4.105,2.779,10.143-1.355,13.49
			c-1.791,1.461-3.955,2.172-6.107,2.172c-2.163,0-4.311-0.715-6.057-2.113c-1.318-0.969-2.168-2.371-2.212-2.448l-1.014-0.047
			l-4.427,0.062l-1.559-2.716l-3.75,0.352l-1.439-1.478l-1.316-0.286L40.569,43.712z M69.998,38.384
			c-1.403,0.013-2.517,1.165-2.501,2.546c0.022,1.384,1.159,2.486,2.552,2.486c0.007,0,0.014,0,0.022-0.004
			c1.388-0.021,2.515-1.161,2.489-2.555c-0.011-1.365-1.134-2.474-2.519-2.474C70.027,38.384,70.012,38.384,69.998,38.384"/>
	</g>
</g>
</svg>
