<?xml version="1.0" encoding="utf-8"?>
<!-- Generator: Adobe Illustrator 16.0.0, SVG Export Plug-In . SVG Version: 6.00 Build 0)  -->
<svg version="1.2" baseProfile="tiny" xmlns="http://www.w3.org/2000/svg" xmlns:xlink="http://www.w3.org/1999/xlink" x="0px"
	 y="0px" width="100px" height="100px" viewBox="0 0 100 100" xml:space="preserve">
<g id="Layer_1">
</g>
<g id="nyt_x5F_exporter_x5F_info" display="none">
</g>
<g id="CloudTrail">
	<g id="Instances">
		<rect x="14.001" y="12.963" fill="#769B3F" width="18" height="14"/>
		<rect x="41.001" y="12.963" fill="#769B3F" width="18" height="14"/>
		<rect x="68.001" y="12.963" fill="#769B3F" width="18" height="14"/>
		<rect x="14.001" y="39.963" fill="#769B3F" width="18" height="14"/>
		<rect x="41.001" y="39.963" fill="#769B3F" width="18" height="14"/>
		<rect x="68.001" y="39.963" fill="#769B3F" width="18" height="14"/>
		<rect x="14.001" y="66.963" fill="#769B3F" width="18" height="14"/>
		<rect x="41.001" y="66.963" fill="#769B3F" width="18" height="14"/>
		<rect x="68.001" y="66.963" fill="#769B3F" width="18" height="14"/>
		<rect x="14.001" y="26.963" fill="#4D622C" width="18" height="4"/>
		<rect x="41.001" y="26.963" fill="#4D622C" width="18" height="4"/>
		<rect x="68.001" y="26.963" fill="#4D622C" width="18" height="4"/>
		<rect x="14.001" y="53.963" fill="#4D622C" width="18" height="4"/>
		<rect x="41.001" y="53.963" fill="#4D622C" width="18" height="4"/>
		<rect x="68.001" y="53.963" fill="#4D622C" width="18" height="4"/>
		<rect x="14.001" y="80.963" fill="#4D622C" width="18" height="4"/>
		<rect x="41.001" y="80.963" fill="#4D622C" width="18" height="4"/>
		<rect x="68.001" y="80.963" fill="#4D622C" width="18" height="4"/>
	</g>
</g>
</svg>
