<?xml version="1.0" encoding="utf-8"?>
<!-- Generator: Adobe Illustrator 16.0.0, SVG Export Plug-In . SVG Version: 6.00 Build 0)  -->
<svg version="1.2" baseProfile="tiny" xmlns="http://www.w3.org/2000/svg" xmlns:xlink="http://www.w3.org/1999/xlink" x="0px"
	 y="0px" width="100px" height="100px" viewBox="0 0 100 100" xml:space="preserve">
<g id="Layer_1">
</g>
<g id="nyt_x5F_exporter_x5F_info" display="none">
</g>
<g id="CloudTrail">
	<g>
		<path fill="#C5C6C7" d="M67.716,20.723c1.662,0,3,1.331,3,2.966v47.395c0,1.639-1.338,2.982-3,2.982H32.952
			c-1.664,0-3.002-1.344-3.002-2.982V23.688c0-1.635,1.338-2.966,3.002-2.966H67.716z"/>
	</g>
	<g>
		<path fill="#737678" d="M43.841,53.905l-2.9,3.107l-2.613-1.408l-0.225-16.125c-0.109-0.033-0.5-0.203-1.023-0.494
			c-0.459-0.236-0.909-0.525-1.314-0.881c-0.405-0.324-0.799-0.711-1.148-1.16c-1.295-1.592-1.928-3.51-1.928-5.424
			c0-2.172,0.816-4.33,2.396-5.971c0.221-0.236,0.467-0.461,0.723-0.678c3.65-3.01,9.017-2.471,11.993,1.203
			c1.3,1.594,1.931,3.518,1.931,5.432c0,1.922-0.637,3.832-1.879,5.385c-0.861,1.17-2.108,1.926-2.176,1.967l-0.041,0.9l0.053,3.936
			l-2.413,1.385l0.312,3.334l-1.313,1.279l-0.255,1.17L43.841,53.905z M39.104,27.741c0.01,1.25,1.036,2.238,2.262,2.225
			c1.23-0.02,2.211-1.031,2.211-2.27c0-0.006,0-0.012-0.002-0.02c-0.02-1.234-1.033-2.234-2.271-2.213
			c-1.213,0.01-2.199,1.01-2.199,2.24C39.104,27.716,39.104,27.729,39.104,27.741"/>
	</g>
	<path fill="#3A3A3A" d="M63.581,57.146v-6.141c-0.43-4.045-3.918-7.188-8.102-7.188c-4.195,0-7.688,3.127-8.102,7.188v6.141h-4.191
		v13.611h24.467V57.146H63.581z M59.62,57.146h-8.336l0.027-6.141c0,0-0.004-3.764,4.168-3.75c3.99,0.012,4.168,3.75,4.168,3.75
		L59.62,57.146z"/>
</g>
</svg>
