<?xml version="1.0" encoding="utf-8"?>
<!-- Generator: Adobe Illustrator 16.0.0, SVG Export Plug-In . SVG Version: 6.00 Build 0)  -->
<svg version="1.2" baseProfile="tiny" xmlns="http://www.w3.org/2000/svg" xmlns:xlink="http://www.w3.org/1999/xlink" x="0px"
	 y="0px" width="100.668px" height="100.668px" viewBox="0 0 100.668 100.668" xml:space="preserve">
<g id="Layer_1">
</g>
<g id="nyt_x5F_exporter_x5F_info" display="none">
</g>
<g id="CloudTrail">
	<g id="Um7reR_1_">
		<g>
			<g>
				<path fill-rule="evenodd" fill="#4D632F" d="M15.574,80.386c-0.625-0.253-1.246-0.528-1.847-0.838
					C7.849,76.526,6.4,73.019,9.035,66.946c1.073-2.477,2.981-4.59,4.484-6.883c0.571-0.871,1.158-1.748,1.592-2.689
					c2.165-4.688,1.958-9.966,3.668-14.787c1.874-5.283,4.221-10.292,7.362-14.954c5.565-8.265,13.645-11.827,23.2-13.055
					c7.222-0.928,13.35,1.472,19.307,5.164c8.456,5.238,13.873,12.622,15.954,22.281c0.607,2.828,1.247,5.539,2.658,8.05
					c0.244,0.435,0.503,0.877,0.832,1.246c2.587,2.907,2.655,5.659,0.111,8.611c-2.653,3.08-5.989,5.293-9.519,7.22
					c-7.858,4.288-15.719,8.576-23.626,12.776c-2.129,1.131-4.353,2.206-6.66,2.851C38.449,86.61,22.436,83.171,15.574,80.386z
					 M84.648,49.807c-0.271-0.672-0.541-1.344-0.811-2.016c-0.291-0.51-0.735-0.99-0.846-1.537c-0.258-1.274-0.354-2.58-0.515-3.874
					c-0.089-0.662-0.104-1.345-0.277-1.982c-1.22-4.486-3.652-8.363-6.402-12.014c-1.081-1.435-2.738-2.435-4.133-3.633
					c-3.47-2.871-7.159-5.367-11.496-6.763c-0.68-0.238-1.36-0.477-2.041-0.715c-0.199-0.094-0.399-0.27-0.599-0.268
					c-3.522,0.029-7.065-0.137-10.561,0.193c-2.94,0.277-5.951,0.979-8.274,2.959c-1.779,1.516-3.328,3.354-4.769,5.212
					c-3.872,4.994-6.317,10.784-8.64,16.581c-1.26,3.148-1.886,6.549-2.814,9.831c-0.52,1.833-0.979,3.69-1.658,5.464
					c-0.265,0.688-1.013,1.552-1.63,1.63c-0.506,0.064-1.145-0.915-1.724-1.431c-0.715,1.521-0.151,3.111,0.782,4.503
					c2.43,3.618,5.892,5.824,10.093,6.872c5.18,1.293,10.34,2.484,15.792,1.761c4.389-0.582,8.836-0.723,13.259-1.052
					c1.589-0.118,3.18-0.215,4.771-0.321c-5.226,2.175-10.629,3.931-16.237,3.886c-4.952-0.039-9.896-1.113-14.845-1.709
					c-4.45-0.537-8.9-1.077-13.357-1.545c-1.355-0.143-2.506,0.468-2.926,1.811c-0.801,2.558,1.268,6.646,3.87,7.572
					c5.753,2.049,11.714,3.227,17.799,3.431c5.305,0.179,10.418-1.053,15.139-3.488c6.407-3.306,12.721-6.796,19.077-10.2
					c2.07-1.108,4.151-2.198,6.527-3.454c-2.522-1.205-3.114-2.961-2.13-5.244c0.888,0.255,1.775,0.509,2.663,0.763
					c-0.125,1.296-0.251,2.591-0.413,4.271c4.061-2.106,7.369-4.377,9.881-7.65c1.133-1.475,0.744-2.939-0.267-4.357
					C86.131,52.162,85.407,50.972,84.648,49.807z"/>
				<path fill-rule="evenodd" fill="#759B3D" d="M60.169,17.988c4.337,1.396,8.026,3.892,11.496,6.763
					c-1.225-0.051-2.477-0.293-3.668-0.121c-4.549,0.657-7.668,3.519-10.294,7.027c-3.676,4.908-4.514,10.603-4.237,16.493
					c0.128,2.712,0.562,5.467,2.268,8.299c0.259-1.875,0.434-3.349,0.669-4.812c0.784-4.878,2.135-9.548,5.06-13.635
					c4.65-6.5,14.216-6.562,18.688-0.056c0.939,1.366,1.56,2.95,2.328,4.434c0.161,1.294,0.257,2.6,0.515,3.874
					c0.11,0.547,0.555,1.027,0.846,1.537c-0.351,3.613-2.915,5.588-5.699,7.146c-3.526,1.976-7.151,3.856-10.913,5.314
					c-6.471,2.511-13.272,3.942-20.152,4.723c-3.652,0.415-7.418,0.373-11.081,0.012c-4.01-0.395-7.955-1.425-11.939-2.111
					c-0.875-0.15-1.798-0.022-2.7-0.022c-0.021,0.215-0.044,0.43-0.067,0.646c2.021,0.594,4.028,1.239,6.065,1.771
					c4.943,1.289,9.834,3.104,15.06,2.477c4.29-0.516,8.565-1.211,12.816-1.997c9.59-1.771,18.575-5.031,26.296-11.206
					c1.537-1.229,3.174-2.439,3.126-4.735c0.759,1.165,1.482,2.355,2.289,3.486c1.011,1.418,1.399,2.883,0.267,4.357
					c-2.512,3.273-5.82,5.544-9.881,7.65c0.162-1.681,0.288-2.976,0.413-4.271c1.987-1.354,3.974-2.708,5.96-4.062
					c-0.062-0.156-0.123-0.312-0.186-0.469c-0.897,0.104-1.914-0.027-2.667,0.358c-1.985,1.018-3.855,2.258-5.771,3.41
					c-0.984,2.283-0.393,4.039,2.13,5.244c-2.376,1.256-4.457,2.346-6.527,3.454c-6.356,3.404-12.67,6.895-19.077,10.2
					c-4.721,2.436-9.834,3.667-15.139,3.488c-6.085-0.204-12.046-1.382-17.799-3.431c-2.603-0.927-4.671-5.015-3.87-7.572
					c0.42-1.343,1.57-1.953,2.926-1.811c4.457,0.468,8.907,1.008,13.357,1.545c4.949,0.596,9.893,1.67,14.845,1.709
					c5.608,0.045,11.012-1.711,16.237-3.886c-1.591,0.106-3.182,0.203-4.771,0.321c-4.423,0.329-8.87,0.47-13.259,1.052
					c-5.452,0.724-10.612-0.468-15.792-1.761c-4.201-1.048-7.663-3.254-10.093-6.872c-0.934-1.392-1.497-2.981-0.782-4.503
					c0.579,0.516,1.218,1.495,1.724,1.431c0.617-0.078,1.365-0.941,1.63-1.63c0.68-1.773,1.139-3.631,1.658-5.464
					c0.929-3.282,1.555-6.683,2.814-9.831c2.322-5.797,4.768-11.587,8.64-16.581c1.44-1.857,2.989-3.696,4.769-5.212
					c2.323-1.98,5.334-2.682,8.274-2.959c3.495-0.33,7.038-0.164,10.561-0.193c0.199-0.002,0.399,0.174,0.599,0.268
					c-2.189-0.097-4.16,0.564-5.765,2.011c-1.547,1.393-3.067,2.854-4.372,4.47c-6.065,7.514-7.883,16.441-8.096,25.772
					c-0.073,3.195,0.662,6.399,2.626,9.119c1.056,1.463,2.416,2.354,4.501,2.311c-0.249-0.66-0.384-1.082-0.562-1.482
					c-1.698-3.811-2.519-7.824-2.572-11.973c-0.094-7.262,2.407-13.798,5.864-20.03C52.151,23.146,55.1,19.395,60.169,17.988z"/>
				<path fill-rule="evenodd" fill="#B5C79A" d="M82.478,42.38c-0.769-1.483-1.389-3.067-2.328-4.434
					c-4.472-6.507-14.037-6.444-18.688,0.056c-2.925,4.087-4.275,8.757-5.06,13.635c-0.235,1.464-0.41,2.938-0.669,4.812
					c-1.705-2.832-2.14-5.587-2.268-8.299c-0.276-5.891,0.562-11.585,4.237-16.493c2.626-3.509,5.745-6.37,10.294-7.027
					c1.191-0.172,2.443,0.07,3.668,0.121c1.395,1.198,3.052,2.198,4.133,3.633c2.75,3.65,5.183,7.527,6.402,12.014
					C82.374,41.035,82.389,41.718,82.478,42.38z"/>
				<path fill-rule="evenodd" fill="#B4C79A" d="M60.169,17.988c-5.069,1.406-8.018,5.157-10.417,9.482
					c-3.457,6.232-5.958,12.769-5.864,20.03c0.054,4.148,0.874,8.162,2.572,11.973c0.179,0.4,0.313,0.822,0.562,1.482
					c-2.085,0.043-3.445-0.848-4.501-2.311c-1.964-2.72-2.699-5.924-2.626-9.119c0.213-9.331,2.03-18.259,8.096-25.772
					c1.305-1.615,2.825-3.077,4.372-4.47c1.604-1.446,3.575-2.107,5.765-2.011C58.809,17.512,59.489,17.75,60.169,17.988z"/>
				<path fill-rule="evenodd" fill="#B3C697" d="M84.648,49.807c0.048,2.296-1.589,3.507-3.126,4.735
					c-7.721,6.175-16.706,9.435-26.296,11.206c-4.251,0.786-8.526,1.481-12.816,1.997c-5.226,0.628-10.116-1.188-15.06-2.477
					c-2.037-0.531-4.044-1.177-6.065-1.771c0.023-0.216,0.046-0.431,0.067-0.646c0.902,0,1.825-0.128,2.7,0.022
					c3.984,0.687,7.93,1.717,11.939,2.111c3.663,0.361,7.429,0.403,11.081-0.012c6.88-0.78,13.682-2.212,20.152-4.723
					c3.762-1.458,7.387-3.339,10.913-5.314c2.784-1.559,5.349-3.533,5.699-7.146C84.107,48.463,84.378,49.135,84.648,49.807z"/>
				<path fill-rule="evenodd" fill="#B2C597" d="M75.073,60.267c1.915-1.152,3.785-2.393,5.771-3.41
					c0.753-0.386,1.77-0.254,2.667-0.358c0.062,0.156,0.124,0.312,0.186,0.469c-1.986,1.354-3.973,2.709-5.96,4.062
					C76.849,60.775,75.961,60.521,75.073,60.267z"/>
			</g>
		</g>
	</g>
</g>
</svg>
