<?xml version="1.0" encoding="utf-8"?>
<!-- Generator: Adobe Illustrator 16.0.0, SVG Export Plug-In . SVG Version: 6.00 Build 0)  -->
<svg version="1.2" baseProfile="tiny" xmlns="http://www.w3.org/2000/svg" xmlns:xlink="http://www.w3.org/1999/xlink" x="0px"
	 y="0px" width="100px" height="100px" viewBox="0 0 100 100" xml:space="preserve">
<g id="Layer_1">
</g>
<g id="nyt_x5F_exporter_x5F_info" display="none">
</g>
<g id="CloudTrail">
	<g id="Deployments">
		<g>
			<polygon fill="#4D622C" points="16.667,62.693 32.667,82.693 48.667,62.693 			"/>
			<rect x="16.667" y="58.693" fill="#4D622C" width="32" height="4"/>
			<polygon fill="#4D622C" points="56.667,62.693 72.667,82.693 88.667,62.693 			"/>
			<g>
				<polygon fill="#4D622C" points="76.667,48.693 56.667,28.693 58.667,18.693 46.667,18.693 48.667,28.693 28.667,48.693 
					28.667,62.693 36.667,62.693 36.667,52.693 52.667,36.693 52.667,36.693 68.667,52.693 68.667,62.693 76.667,62.693 				"/>
			</g>
			<rect x="56.667" y="58.693" fill="#4D622C" width="32" height="4"/>
		</g>
		<g>
			<polygon fill="#769B3F" points="16.667,58.693 32.667,78.693 48.667,58.693 			"/>
			<polygon fill="#769B3F" points="56.667,58.693 72.667,78.693 88.667,58.693 			"/>
			<g>
				<polygon fill="#769B3F" points="77.667,44.693 58.667,25.693 58.667,14.693 46.667,14.693 46.667,25.693 27.667,44.693 
					27.667,58.693 37.667,58.693 37.667,48.693 52.667,32.693 52.667,32.693 67.667,48.693 67.667,58.693 77.667,58.693 				"/>
			</g>
		</g>
	</g>
</g>
</svg>
