<?xml version="1.0" encoding="utf-8"?>
<!-- Generator: Adobe Illustrator 16.0.0, SVG Export Plug-In . SVG Version: 6.00 Build 0)  -->
<svg version="1.2" baseProfile="tiny" xmlns="http://www.w3.org/2000/svg" xmlns:xlink="http://www.w3.org/1999/xlink" x="0px"
	 y="0px" width="98.667px" height="98.667px" viewBox="0 0 98.667 98.667" xml:space="preserve">
<g id="Layer_1">
</g>
<g id="nyt_x5F_exporter_x5F_info" display="none">
</g>
<g id="CloudTrail">
	<path fill="#737678" d="M29.085,67C25.847,67,23,63.98,23,60.667v-23C23,34.354,25.847,32,29.085,32h41.051
		C73.374,32,76,34.354,76,37.667v23C76,63.98,73.374,67,70.136,67H29.085z"/>
	<path fill="#FFFFFF" d="M29.085,64C25.847,64,23,60.98,23,57.667v-23C23,31.354,25.847,29,29.085,29h41.051
		C73.374,29,76,31.354,76,34.667v23C76,60.98,73.374,64,70.136,64H29.085z"/>
	<g>
		<path fill="#737678" d="M61.514,48.404l3.496,3.262l-1.582,2.94l-18.139,0.252c-0.038,0.124-0.229,0.563-0.555,1.151
			c-0.268,0.517-0.594,1.023-0.994,1.479c-0.363,0.456-0.798,0.899-1.304,1.293c-1.79,1.455-3.948,2.167-6.101,2.167
			c-2.443,0-4.87-0.919-6.717-2.694c-0.266-0.248-0.521-0.525-0.762-0.814c-3.386-4.104-2.78-10.143,1.354-13.49
			c1.792-1.461,3.956-2.172,6.108-2.172c2.162,0,4.311,0.716,6.057,2.114c1.317,0.969,2.168,2.37,2.211,2.447l1.014,0.047
			l4.428-0.062l1.558,2.717l3.751-0.352l1.438,1.477l1.316,0.287L61.514,48.404z M32.085,53.731
			c1.403-0.013,2.517-1.165,2.501-2.545c-0.021-1.384-1.158-2.487-2.551-2.487c-0.008,0-0.014,0-0.023,0.004
			c-1.388,0.021-2.515,1.162-2.488,2.555c0.01,1.365,1.133,2.474,2.518,2.474C32.055,53.731,32.071,53.731,32.085,53.731"/>
	</g>
	<g>
		<path fill="#769B3F" d="M37.485,39.606l-3.496-3.263l1.583-2.939l18.139-0.253c0.037-0.124,0.229-0.563,0.555-1.151
			c0.268-0.517,0.593-1.023,0.992-1.479c0.364-0.455,0.799-0.898,1.305-1.293c1.791-1.455,3.949-2.166,6.101-2.166
			c2.444,0,4.87,0.918,6.718,2.693c0.264,0.249,0.52,0.525,0.762,0.814c3.385,4.105,2.779,10.143-1.355,13.49
			c-1.791,1.461-3.955,2.172-6.107,2.172c-2.163,0-4.311-0.715-6.057-2.113c-1.318-0.969-2.168-2.371-2.212-2.448l-1.014-0.047
			l-4.427,0.062l-1.559-2.716l-3.75,0.352l-1.439-1.478l-1.316-0.286L37.485,39.606z M66.914,34.278
			c-1.403,0.013-2.517,1.165-2.501,2.546c0.022,1.384,1.159,2.486,2.552,2.486c0.007,0,0.014,0,0.022-0.004
			c1.388-0.021,2.515-1.161,2.489-2.555c-0.011-1.365-1.134-2.474-2.519-2.474C66.943,34.278,66.928,34.278,66.914,34.278"/>
	</g>
	<g>
		<g>
			<circle fill="#FFFFFF" stroke="#444444" stroke-width="3" stroke-miterlimit="10" cx="71.431" cy="63.437" r="13.016"/>
			<line fill="#FFFFFF" stroke="#444444" stroke-width="3" stroke-miterlimit="10" x1="72.5" y1="55.261" x2="72.431" y2="66.636"/>
		</g>
		<line fill="#FFFFFF" stroke="#444444" stroke-width="3" stroke-miterlimit="10" x1="66" y1="65.5" x2="73" y2="65.5"/>
	</g>
</g>
</svg>
