<?xml version="1.0" encoding="utf-8"?>
<!-- Generator: Adobe Illustrator 16.0.0, SVG Export Plug-In . SVG Version: 6.00 Build 0)  -->
<svg version="1.2" baseProfile="tiny" xmlns="http://www.w3.org/2000/svg" xmlns:xlink="http://www.w3.org/1999/xlink" x="0px"
	 y="0px" width="100px" height="100px" viewBox="0 0 100 100" xml:space="preserve">
<g id="Layer_1">
</g>
<g id="nyt_x5F_exporter_x5F_info" display="none">
</g>
<g id="CloudTrail">
	<g id="Permissions">
		<g>
			<path fill="#4D622C" d="M73.917,46.443v-17c0-7.043-5.707-12.75-12.75-12.75h-17c-7.043,0-12.75,5.707-12.75,12.75v17h-8.5v38.25
				h59.5v-38.25H73.917z M65.417,46.443h-25.5V32.847c0-4.226,3.428-7.653,7.654-7.653h10.192c4.226,0,7.653,3.428,7.653,7.653
				V46.443z"/>
		</g>
		<g>
			<path fill="#769B3F" d="M73.917,42.443v-17c0-7.043-5.707-12.75-12.75-12.75h-17c-7.043,0-12.75,5.707-12.75,12.75v17h-8.5v38.25
				h59.5v-38.25H73.917z M65.417,42.443h-25.5V28.847c0-4.226,3.428-7.653,7.654-7.653h10.192c4.226,0,7.653,3.428,7.653,7.653
				V42.443z"/>
		</g>
	</g>
</g>
</svg>
