<?xml version="1.0" encoding="utf-8"?>
<!-- Generator: Adobe Illustrator 16.0.0, SVG Export Plug-In . SVG Version: 6.00 Build 0)  -->
<svg version="1.2" baseProfile="tiny" xmlns="http://www.w3.org/2000/svg" xmlns:xlink="http://www.w3.org/1999/xlink" x="0px"
	 y="0px" width="101.333px" height="101.333px" viewBox="0 0 101.333 101.333" xml:space="preserve">
<g id="Layer_1">
	<g>
		<g>
			<polygon fill="#FFFFFF" stroke="#464646" stroke-width="2.2721" stroke-miterlimit="10" points="50.654,87 19.482,68.99 
				19.494,32.988 50.676,15 81.85,33.011 81.836,69.013 			"/>
			<polygon fill="#FFFFFF" stroke="#464646" stroke-width="2.2721" stroke-miterlimit="10" points="19.496,32.988 19.496,32.998 
				50.656,50.999 81.838,33.012 81.838,33.002 50.678,15 			"/>
			<polygon fill="#FFFFFF" stroke="#464646" stroke-width="2.2721" stroke-miterlimit="10" points="19.49,32.999 19.482,33.004 
				20.088,68.984 51.562,86.459 51.57,86.453 50.965,50.474 			"/>
		</g>
		<g>
			<polygon fill="#205E00" stroke="#FFFFFF" stroke-width="2.2721" stroke-miterlimit="10" points="50.66,70.684 33.615,60.837 
				33.621,41.152 50.672,31.315 67.719,41.163 67.711,60.85 			"/>
			<polygon fill="#205E00" stroke="#FFFFFF" stroke-width="2.2721" stroke-miterlimit="10" points="33.621,41.152 33.621,41.156 
				50.66,50.999 67.711,41.164 67.711,41.159 50.672,31.315 			"/>
			<polygon fill="#205E00" stroke="#FFFFFF" stroke-width="2.2721" stroke-miterlimit="10" points="33.619,41.157 33.615,41.16 
				33.947,60.835 51.156,70.388 51.16,70.387 50.83,50.712 			"/>
		</g>
	</g>
</g>
<g id="nyt_x5F_exporter_x5F_info" display="none">
</g>
</svg>
